<?xml version="1.0" standalone="yes"?>
<svg xmlns="http://www.w3.org/2000/svg" width="3200" height="2000">
<path style="fill:#010101; stroke:none;" d="M0 0L0 2000L3200 2000L3200 0L0 0z"/>
<path style="fill:#9e060a; stroke:none;" d="M1338 383L1338 384L1341 383L1333 390L1337 385L1324 398L1328 393C1323.56 396.143 1316.24 402.607 1321 408L1319 405L1361 433L1353 404L1354 404L1356 412L1357 412L1354 402L1353 404L1352 404L1346 380L1338 383M1347 380L1348 385L1349 385L1347 380z"/>
<path style="fill:#010101; stroke:none;" d="M1342 381L1341 383L1342 381z"/>
<path style="fill:#d20509; stroke:none;" d="M1346 382L1347 383L1346 382z"/>
<path style="fill:#010101; stroke:none;" d="M1347 382L1347 385L1348 385L1347 382z"/>
<path style="fill:#62080a; stroke:none;" d="M1339 383L1340 384L1339 383z"/>
<path style="fill:#010101; stroke:none;" d="M1340 383L1341 384L1340 383z"/>
<path style="fill:#f20308; stroke:none;" d="M1347 385L1348 386L1347 385z"/>
<path style="fill:#010101; stroke:none;" d="M1336 386L1333 390L1336 386z"/>
<path style="fill:#f20308; stroke:none;" d="M1337 386L1338 387L1337 386z"/>
<path style="fill:#d20509; stroke:none;" d="M1336 387L1337 388L1336 387M1335 388L1336 389L1335 388z"/>
<path style="fill:#9e060a; stroke:none;" d="M1349 388L1352 399L1353 399L1349 388z"/>
<path style="fill:#d20509; stroke:none;" d="M1334 389L1335 390L1334 389z"/>
<path style="fill:#010101; stroke:none;" d="M1332 390L1331 392L1332 390z"/>
<path style="fill:#d20509; stroke:none;" d="M1348 390L1349 391L1348 390z"/>
<path style="fill:#010101; stroke:none;" d="M1349 390L1351 399L1352 399L1349 390z"/>
<path style="fill:#62080a; stroke:none;" d="M1329 392L1330 393L1329 392z"/>
<path style="fill:#010101; stroke:none;" d="M1330 392L1331 393L1330 392z"/>
<path style="fill:#d20509; stroke:none;" d="M1349 393L1350 394L1349 393z"/>
<path style="fill:#010101; stroke:none;" d="M1326 395L1324 398L1326 395z"/>
<path style="fill:#f20308; stroke:none;" d="M1327 395L1328 396L1327 395z"/>
<path style="fill:#d20509; stroke:none;" d="M1326 396L1327 397L1326 396M1350 396L1351 397L1350 396M1325 397L1326 398L1325 397z"/>
<path style="fill:#010101; stroke:none;" d="M1323 398L1321 401L1323 398z"/>
<path style="fill:#f20308; stroke:none;" d="M1351 399L1352 400L1351 399z"/>
<path style="fill:#010101; stroke:none;" d="M1353 404L1355 413L1356 413L1353 404M1319 405L1319 406L1324 410L1324 411L1322 411L1322 412L1343 422L1343 421L1324 412L1326 409L1319 405z"/>
<path style="fill:#f20308; stroke:none;" d="M1320 405L1321 406L1320 405M1308 411L1308 412L1319.91 455L1338 502C1323.68 500.819 1311.26 480.502 1302.76 470C1297.47 463.455 1297.23 458.879 1288 458L1288 457L1291 457L1291 456L1274 454L1273 458L1271 456L1269 470L1268 470L1267 468L1267 480L1268 478L1269 478L1271 490L1272 488L1273 488L1275 500L1276 498L1277 498L1279 510L1281 509C1281.51 513.464 1280.7 519.878 1286 521L1287 531L1290 531L1292 543L1293 541L1294 541L1296 553L1297 551L1298 551L1297 569L1296 569L1296 565L1295 565L1294 584L1293 584L1293 581L1292 581C1289.86 593.094 1285.61 616.142 1302 619L1302 620L1300 621L1306 625C1300.79 625.931 1297.8 630.836 1298 636C1295.11 636.313 1294.93 637.077 1295 640C1288.59 641.672 1281.75 651.516 1282 658C1278.43 658.946 1277.65 660.368 1278 664C1272.17 665.217 1271.73 679.58 1270 685L1279 685L1277 684L1277 683L1292 681L1290 680L1290 679L1302 680L1302 681C1295.53 682.043 1285.24 687.09 1284 694C1280.83 694.116 1279.87 694.946 1279 698C1275.84 698.116 1274.87 698.946 1274 702L1265 706L1267 708L1262 709L1259 717L1256 717L1253 727L1251 725C1244.78 742.955 1246.2 762.466 1247 781L1248 781L1248 775L1249 775L1248 808L1247 808L1247 804L1246 804L1245 823L1244 823L1244 819L1243 819L1242 827L1243 827L1243 823L1244 823L1240 847L1239 847L1239 843L1238 843C1238.74 851.994 1245.36 855.428 1253 859C1253 851.525 1269.65 846.947 1268 838C1273.66 838.084 1276.65 832.939 1280.17 829C1288.24 819.955 1296.63 811.152 1304.58 802C1308.04 798.006 1312.77 794.513 1313 789C1321.62 789.128 1331.41 773.077 1336.93 767C1355.16 746.894 1373.54 726.977 1391.91 707C1397.56 700.859 1411.19 690.397 1412 682C1422.08 679.169 1430.98 664.616 1437.83 657C1441.83 652.556 1444.57 647.456 1451 650L1439 639L1470 638L1470 637L1451 637L1455 633L1454 636L1457 636L1466.67 626L1502 586L1496 588L1499 583L1504 585L1504 584C1493.73 579.9 1482.83 577.945 1472 582L1474 576L1476 578C1478.53 570.007 1478.53 558.993 1476 551L1474 553C1471.17 539.574 1460.1 532.115 1450 523C1441.81 515.608 1434.42 507.297 1426 500.167C1422.7 497.371 1407.42 486.26 1409 484C1400.92 477.852 1396.49 473.892 1386 477C1384.72 473.172 1384.26 467.873 1380 467C1379.64 463.566 1379.77 460.44 1376 460C1376.39 456.304 1375.85 453.783 1372 453C1372.39 449.304 1371.85 446.783 1368 446L1364 434L1362 436C1354.86 424.238 1330.08 413.107 1317 410L1319 408C1314.02 406.05 1311.81 407.49 1308 411z"/>
<path style="fill:#010101; stroke:none;" d="M1309 412L1317 409C1313.44 406.679 1311.32 408.966 1309 412z"/>
<path style="fill:#62080a; stroke:none;" d="M1321 407L1322 408L1321 407z"/>
<path style="fill:#d20509; stroke:none;" d="M1323 407L1324 408L1323 407M1353 407L1354 408L1353 407z"/>
<path style="fill:#9e060a; stroke:none;" d="M1322 408L1323 409L1322 408z"/>
<path style="fill:#f20308; stroke:none;" d="M1321 409L1322 410L1321 409z"/>
<path style="fill:#62080a; stroke:none;" d="M1324 409L1325 410L1324 409z"/>
<path style="fill:#f20308; stroke:none;" d="M1322.67 410.333L1323.33 410.667L1322.67 410.333z"/>
<path style="fill:#010101; stroke:none;" d="M1326 410L1329 412L1329 411L1326 410z"/>
<path style="fill:#d20509; stroke:none;" d="M1327 410L1328 411L1327 410M1354 410L1355 411L1354 410z"/>
<path style="fill:#f20308; stroke:none;" d="M1324.67 411.333L1325.33 411.667L1324.67 411.333M1307 412L1308 413L1307 412M1326 412L1327 413L1326 412z"/>
<path style="fill:#d20509; stroke:none;" d="M1330 412L1331 413L1330 412z"/>
<path style="fill:#62080a; stroke:none;" d="M1356 412L1357 413L1356 412z"/>
<path style="fill:#d20509; stroke:none;" d="M1307 413L1308 414L1307 413M1309 413L1310 414L1309 413M1329 413L1330 414L1329 413M1355 413L1356 414L1355 413z"/>
<path style="fill:#9e060a; stroke:none;" d="M1309 414L1300 460L1306 460L1306 461L1299 465L1299 466C1307.67 476.644 1322.35 500.827 1337 501L1319.72 455L1309 414M1330 414L1331 415L1330 414z"/>
<path style="fill:#d20509; stroke:none;" d="M1331 414L1332 415L1331 414z"/>
<path style="fill:#9e060a; stroke:none;" d="M1306 415L1306 419L1307 419L1306 415z"/>
<path style="fill:#d20509; stroke:none;" d="M1308 415L1309 416L1308 415M1332 415L1333 416L1332 415M1334 415L1335 416L1334 415M1310.33 416.667L1310.67 417.333L1310.33 416.667z"/>
<path style="fill:#9e060a; stroke:none;" d="M1357 416L1358 417L1357 416z"/>
<path style="fill:#f20308; stroke:none;" d="M1338 418L1339 419L1338 418z"/>
<path style="fill:#9e060a; stroke:none;" d="M1358.33 418.667L1358.67 419.333L1358.33 418.667M1305 419L1305 423L1306 423L1305 419z"/>
<path style="fill:#d20509; stroke:none;" d="M1307 419L1308 420L1307 419M1311.33 420.667L1311.67 421.333L1311.33 420.667z"/>
<path style="fill:#62080a; stroke:none;" d="M1358 420L1359 421L1358 420z"/>
<path style="fill:#010101; stroke:none;" d="M1358 421L1358 424L1359 424L1358 421z"/>
<path style="fill:#9e060a; stroke:none;" d="M1359.33 421.667L1359.67 422.333L1359.33 421.667z"/>
<path style="fill:#62080a; stroke:none;" d="M1359 423L1360 424L1359 423z"/>
<path style="fill:#f20308; stroke:none;" d="M1306 424L1307 425L1306 424z"/>
<path style="fill:#d20509; stroke:none;" d="M1312.33 424.667L1312.67 425.333L1312.33 424.667M1347 424L1348 425L1347 424z"/>
<path style="fill:#9e060a; stroke:none;" d="M1360.33 424.667L1360.67 425.333L1360.33 424.667z"/>
<path style="fill:#d20509; stroke:none;" d="M1349 425L1350 426L1349 425M1350 426L1351 427L1350 426z"/>
<path style="fill:#9e060a; stroke:none;" d="M1304 427L1304 431L1305 431L1304 427z"/>
<path style="fill:#d20509; stroke:none;" d="M1359 427L1360 428L1359 427M1313.33 428.667L1313.67 429.333L1313.33 428.667M1353 428L1354 429L1353 428M1354 429L1355 430L1354 429z"/>
<path style="fill:#9e060a; stroke:none;" d="M1361.33 429.667L1361.67 430.333L1361.33 429.667z"/>
<path style="fill:#d20509; stroke:none;" d="M1356 430L1357 431L1356 430z"/>
<path style="fill:#9e060a; stroke:none;" d="M1303 431L1303 435L1304 435L1303 431z"/>
<path style="fill:#d20509; stroke:none;" d="M1305 431L1306 432L1305 431M1357 431L1358 432L1357 431z"/>
<path style="fill:#f20308; stroke:none;" d="M1360 431L1361 432L1360 431z"/>
<path style="fill:#9e060a; stroke:none;" d="M1362 432L1363 433L1362 432z"/>
<path style="fill:#d20509; stroke:none;" d="M1314 433L1315 434L1314 433M1360 433L1361 434L1360 433M1362 433L1363 434L1362 433z"/>
<path style="fill:#010101; stroke:none;" d="M1362.33 434.667L1362.67 435.333L1362.33 434.667z"/>
<path style="fill:#9e060a; stroke:none;" d="M1302 436L1302 440L1303 440L1302 436z"/>
<path style="fill:#d20509; stroke:none;" d="M1304 436L1305 437L1304 436z"/>
<path style="fill:#010101; stroke:none;" d="M1363 436L1364 437L1363 436z"/>
<path style="fill:#d20509; stroke:none;" d="M1315 437L1316 438L1315 437z"/>
<path style="fill:#f20308; stroke:none;" d="M1365 438L1366 439L1365 438z"/>
<path style="fill:#9e060a; stroke:none;" d="M1301 440L1301 444L1302 444L1301 440z"/>
<path style="fill:#d20509; stroke:none;" d="M1303 440L1304 441L1303 440z"/>
<path style="fill:#f20308; stroke:none;" d="M1366 440L1367 441L1366 440z"/>
<path style="fill:#d20509; stroke:none;" d="M1316.33 441.667L1316.67 442.333L1316.33 441.667z"/>
<path style="fill:#f20308; stroke:none;" d="M1367 441L1368 442L1367 441M1368 443L1369 444L1368 443M1302 445L1303 446L1302 445z"/>
<path style="fill:#d20509; stroke:none;" d="M1317.33 445.667L1317.67 446.333L1317.33 445.667z"/>
<path style="fill:#010101; stroke:none;" d="M1369 446L1371 451L1372 451L1369 446z"/>
<path style="fill:#9e060a; stroke:none;" d="M1300 448L1299 456L1300 456L1300 448z"/>
<path style="fill:#d20509; stroke:none;" d="M1318.33 449.667L1318.67 450.333L1318.33 449.667z"/>
<path style="fill:#010101; stroke:none;" d="M1300 452L1300 457L1301 457L1300 452z"/>
<path style="fill:#d20509; stroke:none;" d="M1301 452L1302 453L1301 452z"/>
<path style="fill:#f20308; stroke:none;" d="M1275 453L1275 454L1278 454L1275 453z"/>
<path style="fill:#d20509; stroke:none;" d="M1319.33 453.667L1319.67 454.333L1319.33 453.667z"/>
<path style="fill:#010101; stroke:none;" d="M1373 453L1375 458L1376 458L1373 453z"/>
<path style="fill:#f20308; stroke:none;" d="M1281 454L1281 455L1284 455L1281 454z"/>
<path style="fill:#010101; stroke:none;" d="M1284 456L1284 457L1288 457L1284 456z"/>
<path style="fill:#62080a; stroke:none;" d="M1299 456L1300 457L1299 456z"/>
<path style="fill:#f20308; stroke:none;" d="M1292 457L1293 458L1292 457z"/>
<path style="fill:#9e060a; stroke:none;" d="M1298 457L1298 460L1299 460L1298 457z"/>
<path style="fill:#d20509; stroke:none;" d="M1300 457L1301 458L1300 457M1320 457L1321 458L1320 457z"/>
<path style="fill:#010101; stroke:none;" d="M1271 458L1271 461L1272 461L1271 458M1294 459L1298 463L1294 459z"/>
<path style="fill:#d20509; stroke:none;" d="M1321.33 459.667L1321.67 460.333L1321.33 459.667z"/>
<path style="fill:#010101; stroke:none;" d="M1377 460L1379 463L1377 460z"/>
<path style="fill:#f20308; stroke:none;" d="M1269.33 461.667L1269.67 462.333L1269.33 461.667z"/>
<path style="fill:#9e060a; stroke:none;" d="M1301.67 461.333L1302.33 461.667L1301.67 461.333z"/>
<path style="fill:#d20509; stroke:none;" d="M1304 461L1305 462L1304 461z"/>
<path style="fill:#9e060a; stroke:none;" d="M1299 462L1300 463L1299 462z"/>
<path style="fill:#d20509; stroke:none;" d="M1322 462L1323 463L1322 462z"/>
<path style="fill:#f20308; stroke:none;" d="M1380 463L1381 464L1380 463z"/>
<path style="fill:#d20509; stroke:none;" d="M1299 464L1300 465L1299 464M1323 465L1324 466L1323 465z"/>
<path style="fill:#f20308; stroke:none;" d="M1268 466L1269 467L1268 466z"/>
<path style="fill:#d20509; stroke:none;" d="M1299 466L1300 467L1299 466M1300 467L1301 468L1300 467M1324 467L1325 468L1324 467z"/>
<path style="fill:#010101; stroke:none;" d="M1381 467L1382 470L1383 470L1381 467z"/>
<path style="fill:#d20509; stroke:none;" d="M1325.33 469.667L1325.67 470.333L1325.33 469.667z"/>
<path style="fill:#010101; stroke:none;" d="M1267 470L1267 478L1268 478L1267 470z"/>
<path style="fill:#f20308; stroke:none;" d="M1384 470L1385 471L1384 470z"/>
<path style="fill:#d20509; stroke:none;" d="M1304 472L1305 473L1304 472M1326 472L1327 473L1326 472M1305 473L1306 474L1305 473M1306 474L1307 475L1306 474z"/>
<path style="fill:#f20308; stroke:none;" d="M1386 474L1386 475L1389 475L1386 474M1394.67 474.333L1395.33 474.667L1394.67 474.333z"/>
<path style="fill:#d20509; stroke:none;" d="M1307 475L1308 476L1307 475M1327 475L1328 476L1327 475z"/>
<path style="fill:#010101; stroke:none;" d="M1396 476L1396 477L1407 485L1396 476z"/>
<path style="fill:#d20509; stroke:none;" d="M1328 477L1329 478L1328 477M1311 480L1312 481L1311 480M1329 480L1330 481L1329 480z"/>
<path style="fill:#f20308; stroke:none;" d="M1268 481L1269 482L1268 481z"/>
<path style="fill:#d20509; stroke:none;" d="M1312 481L1313 482L1312 481M1313 482L1314 483L1313 482M1330 482L1331 483L1330 482M1314 483L1315 484L1314 483z"/>
<path style="fill:#010101; stroke:none;" d="M1270 484L1271 488L1272 488L1270 484z"/>
<path style="fill:#d20509; stroke:none;" d="M1331 485L1332 486L1331 485z"/>
<path style="fill:#f20308; stroke:none;" d="M1410 486L1411 487L1410 486z"/>
<path style="fill:#d20509; stroke:none;" d="M1332 487L1333 488L1332 487z"/>
<path style="fill:#f20308; stroke:none;" d="M1411 487L1412 488L1411 487z"/>
<path style="fill:#d20509; stroke:none;" d="M1318 488L1319 489L1318 488M1319 489L1320 490L1319 489z"/>
<path style="fill:#010101; stroke:none;" d="M1412 489L1471 547L1472 547L1450 523.83L1412 489z"/>
<path style="fill:#d20509; stroke:none;" d="M1320 490L1321 491L1320 490M1333 490L1334 491L1333 490z"/>
<path style="fill:#9e060a; stroke:none;" d="M1366 490L1390 518C1390 501.444 1383.85 490.768 1366 490z"/>
<path style="fill:#d20509; stroke:none;" d="M1371 490L1371 491L1374 491L1371 490z"/>
<path style="fill:#f20308; stroke:none;" d="M1272 491L1273 492L1272 491z"/>
<path style="fill:#d20509; stroke:none;" d="M1321 491L1322 492L1321 491M1376 491L1377 492L1376 491M1322 492L1323 493L1322 492M1334 492L1335 493L1334 492M1367 492L1368 493L1367 492M1379 492L1380 493L1379 492M1368 493L1369 494L1368 493z"/>
<path style="fill:#010101; stroke:none;" d="M1274 494L1275 498L1276 498L1274 494z"/>
<path style="fill:#d20509; stroke:none;" d="M1369 494L1370 495L1369 494M1382 494L1383 495L1382 494M1335 495L1336 496L1335 495M1383 495L1384 496L1383 495M1325 496L1326 497L1325 496M1384 496L1385 497L1384 496M1326 497L1327 498L1326 497M1336.33 497.667L1336.67 498.333L1336.33 497.667M1385 497L1386 498L1385 497M1327 498L1328 499L1327 498M1372 498L1373 499L1372 498M1386 498L1387 499L1386 498M1328 499L1329 500L1328 499M1373 499L1374 500L1373 499M1329 500L1330 501L1329 500M1337 500L1333 501L1333 502L1337 500M1374 500L1375 501L1374 500M1387 500L1388 501L1387 500z"/>
<path style="fill:#f20308; stroke:none;" d="M1276 501L1277 502L1276 501z"/>
<path style="fill:#d20509; stroke:none;" d="M1388 502L1389 503L1388 502z"/>
<path style="fill:#010101; stroke:none;" d="M1278 504L1279 508L1280 508L1278 504z"/>
<path style="fill:#d20509; stroke:none;" d="M1377 504L1378 505L1377 504M1389.33 504.667L1389.67 505.333L1389.33 504.667M1378 505L1379 506L1378 505M1379 506L1380 507L1379 506M1390 509L1390 517L1391 517L1390 509M1382 510L1383 511L1382 510z"/>
<path style="fill:#f20308; stroke:none;" d="M1280 511L1281 512L1280 511z"/>
<path style="fill:#d20509; stroke:none;" d="M1383 511L1384 512L1383 511M1384 512L1385 513L1384 512z"/>
<path style="fill:#010101; stroke:none;" d="M1282 514L1284 521L1285 521L1282 514z"/>
<path style="fill:#d20509; stroke:none;" d="M1386 515L1387 516L1386 515M1387 516L1388 517L1387 516M1388 517L1389 518L1388 517M1389 518L1390 519L1389 518z"/>
<path style="fill:#f20308; stroke:none;" d="M1285 525L1286 526L1285 525M1286.33 527.667L1286.67 528.333L1286.33 527.667z"/>
<path style="fill:#010101; stroke:none;" d="M1288.33 529.667L1288.67 530.333L1288.33 529.667z"/>
<path style="fill:#f20308; stroke:none;" d="M1289 535L1290 536L1289 535z"/>
<path style="fill:#010101; stroke:none;" d="M1291 537L1292 541L1293 541L1291 537z"/>
<path style="fill:#f20308; stroke:none;" d="M1293 545L1294 546L1293 545z"/>
<path style="fill:#010101; stroke:none;" d="M1295 547L1296 551L1297 551L1295 547z"/>
<path style="fill:#f20308; stroke:none;" d="M1473 547L1474 548L1473 547z"/>
<path style="fill:#010101; stroke:none;" d="M1475 553L1476 560L1477 560L1475 553z"/>
<path style="fill:#f20308; stroke:none;" d="M1297.33 555.667L1297.67 556.333L1297.33 555.667M1296 561L1296 564L1297 564L1296 561z"/>
<path style="fill:#010101; stroke:none;" d="M1295 569L1295 573L1296 573L1295 569M1476 569L1475 576L1476 576L1476 569z"/>
<path style="fill:#f20308; stroke:none;" d="M1293 573L1293 577L1294 577L1293 573M1480 578L1480 579L1494 579L1480 578M1474.67 579.333L1475.33 579.667L1474.67 579.333M1499 579L1500 580L1499 579z"/>
<path style="fill:#d20509; stroke:none;" d="M1500 579L1501 580L1500 579M1472 580L1473 581L1472 580M1496 580L1497 581L1496 580M1502.67 580.333L1503.33 580.667L1502.67 580.333z"/>
<path style="fill:#010101; stroke:none;" d="M1472 581L1473 582L1472 581z"/>
<path style="fill:#d20509; stroke:none;" d="M1499 581L1504 584L1504 585L1499 583L1496 588L1502 586L1469.17 622L1457 636L1454 636L1455 633L1451 637L1470 637L1470 638L1447 638L1447 639L1501 637L1501 636L1496 636L1496 635L1528 633L1528 632L1517 633L1517 632L1557 626C1554.19 619.415 1549.24 613.497 1542 612L1543 609L1517 587L1518 589L1517 589L1516 586L1512 584L1513 586L1512 586L1507 584L1505 581L1505 582L1507 582L1507 583L1499 581z"/>
<path style="fill:#f20308; stroke:none;" d="M1504 581L1505 582L1504 581z"/>
<path style="fill:#010101; stroke:none;" d="M1504 582L1504 583L1507 583L1504 582z"/>
<path style="fill:#d20509; stroke:none;" d="M1495 583L1496 584L1495 583M1497 583L1498 584L1497 583M1510 583L1511 584L1510 583z"/>
<path style="fill:#010101; stroke:none;" d="M1292 584L1292 588L1293 588L1292 584z"/>
<path style="fill:#f20308; stroke:none;" d="M1511 585L1512 586L1511 585z"/>
<path style="fill:#010101; stroke:none;" d="M1512 585L1513 586L1512 585M1513.67 586.333L1514.33 586.667L1513.67 586.333z"/>
<path style="fill:#d20509; stroke:none;" d="M1499 587L1495 588L1455 633C1468.04 630.305 1480.17 609.455 1488.98 600C1492.34 596.393 1497.84 591.812 1499 587z"/>
<path style="fill:#f20308; stroke:none;" d="M1290 588L1290 592L1291 592L1290 588M1516 588L1517 589L1516 588z"/>
<path style="fill:#010101; stroke:none;" d="M1517 588L1518 589L1517 588M1518 589L1518 590L1525 595L1518 589z"/>
<path style="fill:#f20308; stroke:none;" d="M1495 590L1459 630L1485.17 602.961L1495 590M1289 593L1289 596L1290 596L1289 593z"/>
<path style="fill:#d20509; stroke:none;" d="M1528 596L1529 597L1528 596M1529 597L1530 598L1529 597M1530 598L1531 599L1530 598z"/>
<path style="fill:#f20308; stroke:none;" d="M1288 600L1288 606L1289 606L1288 600z"/>
<path style="fill:#010101; stroke:none;" d="M1531 600L1542 611L1531 600z"/>
<path style="fill:#f20308; stroke:none;" d="M1289 609L1290 610L1289 609M1290 611L1291 612L1290 611z"/>
<path style="fill:#d20509; stroke:none;" d="M1544 611L1545 612L1544 611z"/>
<path style="fill:#f20308; stroke:none;" d="M1291 612L1292 613L1291 612z"/>
<path style="fill:#010101; stroke:none;" d="M1545 613L1555 623L1545 613z"/>
<path style="fill:#f20308; stroke:none;" d="M1292 614L1293 615L1292 614z"/>
<path style="fill:#010101; stroke:none;" d="M1294 615L1296 617L1294 615z"/>
<path style="fill:#f20308; stroke:none;" d="M1296 618L1297 619L1296 618M1298 619L1299 620L1298 619z"/>
<path style="fill:#010101; stroke:none;" d="M1302 620L1302 621L1308 622L1302 620M1304 625L1298 634L1304 625z"/>
<path style="fill:#d20509; stroke:none;" d="M1558 625L1559 626L1558 625M1550 628L1550 629L1555 629L1550 628M1544 629L1544 630L1549 630L1544 629M1538 630L1538 631L1543 631L1538 630z"/>
<path style="fill:#f20308; stroke:none;" d="M1458 631L1459 632L1458 631M1522 631L1523 632L1522 631z"/>
<path style="fill:#010101; stroke:none;" d="M1517 632L1517 633L1523 633L1517 632M1511 633L1511 634L1517 634L1511 633z"/>
<path style="fill:#d20509; stroke:none;" d="M1506.67 635.333L1507.33 635.667L1506.67 635.333z"/>
<path style="fill:#010101; stroke:none;" d="M1296 636L1295 638L1296 636M1490 636L1490 637L1496 637L1490 636z"/>
<path style="fill:#f20308; stroke:none;" d="M1293 638L1294 639L1293 638M1474 638L1475 639L1474 638z"/>
<path style="fill:#d20509; stroke:none;" d="M1485 638L1485 639L1490 639L1485 638M1439.33 639.667L1439.67 640.333L1439.33 639.667z"/>
<path style="fill:#9e060a; stroke:none;" d="M1440 639L1453 650.374L1479 669L1472 642L1473 642L1473 644L1474 644L1473 640L1471 642C1466.17 635.658 1447.44 639 1440 639z"/>
<path style="fill:#62080a; stroke:none;" d="M1468.67 639.333L1469.33 639.667L1468.67 639.333z"/>
<path style="fill:#d20509; stroke:none;" d="M1479 639L1479 640L1482 640L1479 639z"/>
<path style="fill:#62080a; stroke:none;" d="M1442 640L1443 641L1442 640z"/>
<path style="fill:#d20509; stroke:none;" d="M1473 640L1474 641L1473 640z"/>
<path style="fill:#010101; stroke:none;" d="M1292 641L1282 656L1283 656L1292 641z"/>
<path style="fill:#d20509; stroke:none;" d="M1441 641L1442 642L1441 641M1442 642L1443 643L1442 642z"/>
<path style="fill:#010101; stroke:none;" d="M1472 642L1472 645L1473 645L1472 642z"/>
<path style="fill:#d20509; stroke:none;" d="M1445 644L1446 645L1445 644z"/>
<path style="fill:#62080a; stroke:none;" d="M1473 644L1474 645L1473 644z"/>
<path style="fill:#d20509; stroke:none;" d="M1334 768L1322 777L1297.42 804L1289 817L1276 827L1249 856L1252 857L1268 840L1262 845L1276 829L1277 828L1288.09 819L1313 791L1309 793C1313.37 788.922 1319.93 786.274 1321 780L1322 779L1334.07 769L1356.71 744L1412.57 682.005L1446 646C1436.89 645.858 1425.05 665.63 1418.96 672C1397.32 694.637 1376.12 717.802 1355.07 741C1349.06 747.628 1334.39 758.843 1334 768M1446 645L1447 646L1446 645M1472 645L1473 646L1472 645z"/>
<path style="fill:#f20308; stroke:none;" d="M1443 646L1414 679L1436 656.424L1443 646z"/>
<path style="fill:#9e060a; stroke:none;" d="M1474 646L1475 647L1474 646z"/>
<path style="fill:#d20509; stroke:none;" d="M1412 682C1410.43 690.349 1396.77 700.786 1390.98 707C1372.8 726.512 1354.84 746.245 1336.93 766C1330.69 772.879 1322.28 786.881 1313 789L1303.71 802L1280.17 828L1268 838C1267.26 844.793 1257.4 853.187 1252 857L1254 861L1257 860C1257.32 862.847 1258.15 863.08 1261 863L1266 866C1270.37 873.976 1284.32 879.481 1292 884.189C1313.36 897.275 1334.71 910.382 1356 923.576C1362.6 927.666 1375.93 932.589 1379.97 939.329C1382.09 942.865 1380.11 948.141 1380.01 952C1379.71 964.361 1378 976.635 1378 989L1379 989L1381 980L1380 985C1387.29 979.849 1402.49 965.823 1404 957C1415.18 953.863 1425.96 936.595 1433.42 928C1436.71 924.213 1440.78 921.223 1441 916C1449.28 914.587 1456.77 903.048 1462.17 897C1478.76 878.421 1496.27 860.681 1512.71 842C1518.16 835.818 1530.64 826.478 1531 818C1534.61 817.359 1535.42 815.522 1536 812L1535 812L1534 815L1533 815L1536 811L1536 807L1530 806L1530 803L1524 802C1523.37 798.859 1522.12 798.713 1519 799L1519 796L1509 794L1511 792L1499 790L1501 788L1485 786L1485 785L1488 785L1488 784L1461 780L1461 779L1520 784L1520 785L1517 785L1517 786L1526 786L1524 777L1523 779L1522 779C1521.21 765.656 1507.65 759.28 1504 747L1503 747L1503 750L1502 750L1500 734L1499 736L1498 736L1496 720L1495 722L1494 722L1488 692L1487 692L1487 695L1486 695L1484 678L1483 678L1483 681L1482 681L1481 669L1452 651L1452 649C1435.61 646.16 1426 675.47 1412 682M1449 647L1450 648L1449 647z"/>
<path style="fill:#62080a; stroke:none;" d="M1474 647L1475 648L1474 647z"/>
<path style="fill:#d20509; stroke:none;" d="M1450 648L1451 649L1450 648z"/>
<path style="fill:#f20308; stroke:none;" d="M1452 650L1453 651L1452 650z"/>
<path style="fill:#9e060a; stroke:none;" d="M1475.33 650.667L1475.67 651.333L1475.33 650.667z"/>
<path style="fill:#f20308; stroke:none;" d="M1453 651L1455 653L1453 651z"/>
<path style="fill:#62080a; stroke:none;" d="M1475 652L1476 653L1475 652z"/>
<path style="fill:#010101; stroke:none;" d="M1475 653L1476 659L1477 659L1475 653z"/>
<path style="fill:#9e060a; stroke:none;" d="M1476.33 653.667L1476.67 654.333L1476.33 653.667z"/>
<path style="fill:#f20308; stroke:none;" d="M1457 654L1459 656L1457 654z"/>
<path style="fill:#62080a; stroke:none;" d="M1476 655L1477 656L1476 655z"/>
<path style="fill:#f20308; stroke:none;" d="M1280 656L1281 657L1280 656z"/>
<path style="fill:#9e060a; stroke:none;" d="M1477.33 656.667L1477.67 657.333L1477.33 656.667z"/>
<path style="fill:#62080a; stroke:none;" d="M1477 658L1478 659L1477 658z"/>
<path style="fill:#010101; stroke:none;" d="M1279 659L1278 662L1279 662L1279 659z"/>
<path style="fill:#9e060a; stroke:none;" d="M1478 660L1479 661L1478 660z"/>
<path style="fill:#62080a; stroke:none;" d="M1469 661L1470 662L1469 661z"/>
<path style="fill:#f20308; stroke:none;" d="M1477 663L1478 664L1477 663z"/>
<path style="fill:#010101; stroke:none;" d="M1276 664L1274 670L1275 670L1276 664z"/>
<path style="fill:#62080a; stroke:none;" d="M1473 664L1475 666L1473 664z"/>
<path style="fill:#9e060a; stroke:none;" d="M1479.33 664.667L1479.67 665.333L1479.33 664.667z"/>
<path style="fill:#62080a; stroke:none;" d="M1479 666L1480 667L1479 666M1477 667L1478 668L1477 667z"/>
<path style="fill:#010101; stroke:none;" d="M1479 667L1479 670L1480 670L1479 667z"/>
<path style="fill:#9e060a; stroke:none;" d="M1480.33 667.667L1480.67 668.333L1480.33 667.667z"/>
<path style="fill:#010101; stroke:none;" d="M1480 670L1480 673L1481 673L1480 670z"/>
<path style="fill:#f20308; stroke:none;" d="M1272 672L1273 673L1272 672z"/>
<path style="fill:#010101; stroke:none;" d="M1314 672L1315 673L1314 672M1298 677L1298 678L1307 676L1307 677L1301 678L1301 679L1313 674L1298 677z"/>
<path style="fill:#f20308; stroke:none;" d="M1271 674L1271 677L1272 677L1271 674z"/>
<path style="fill:#d20509; stroke:none;" d="M1482 674L1483 675L1482 674z"/>
<path style="fill:#f20308; stroke:none;" d="M1307 675L1308 676L1307 675M1270 677L1270 680L1271 680L1270 677M1295.67 679.333L1296.33 679.667L1295.67 679.333z"/>
<path style="fill:#010101; stroke:none;" d="M1284 681L1284 682L1290 681L1284 681z"/>
<path style="fill:#f20308; stroke:none;" d="M1299 680L1300 681L1299 680M1269.33 681.667L1269.67 682.333L1269.33 681.667z"/>
<path style="fill:#010101; stroke:none;" d="M1483 681L1484 687L1485 687L1483 681M1298 682L1284 693L1299 683L1298 682z"/>
<path style="fill:#f20308; stroke:none;" d="M1282.67 683.333L1283.33 683.667L1282.67 683.333M1410 683C1396.3 695.997 1376.69 713.245 1368 730L1369 730L1398.39 697.285L1410 683z"/>
<path style="fill:#010101; stroke:none;" d="M1274 684L1274 685L1277 685L1274 684z"/>
<path style="fill:#f20308; stroke:none;" d="M1271 686L1271 687L1274 687L1271 686z"/>
<path style="fill:#d20509; stroke:none;" d="M1486 688L1487 689L1486 688z"/>
<path style="fill:#010101; stroke:none;" d="M1281 694L1280 696L1281 694M1487 695L1487 698L1488 698L1487 695z"/>
<path style="fill:#f20308; stroke:none;" d="M1277 696L1278 697L1277 696z"/>
<path style="fill:#010101; stroke:none;" d="M1276 698L1275 700L1276 698z"/>
<path style="fill:#d20509; stroke:none;" d="M1489.33 698.667L1489.67 699.333L1489.33 698.667z"/>
<path style="fill:#f20308; stroke:none;" d="M1272 700L1273 701L1272 700z"/>
<path style="fill:#d20509; stroke:none;" d="M1490.33 701.667L1490.67 702.333L1490.33 701.667z"/>
<path style="fill:#010101; stroke:none;" d="M1271 702L1267 707L1271 702z"/>
<path style="fill:#d20509; stroke:none;" d="M1491.33 706.667L1491.67 707.333L1491.33 706.667M1492 709L1493 714L1494 714L1492 709z"/>
<path style="fill:#010101; stroke:none;" d="M1262 711L1259 715L1262 711z"/>
<path style="fill:#f20308; stroke:none;" d="M1257 715L1258 716L1257 715z"/>
<path style="fill:#d20509; stroke:none;" d="M1494.33 715.667L1494.67 716.333L1494.33 715.667z"/>
<path style="fill:#010101; stroke:none;" d="M1256 718L1255 721L1256 718z"/>
<path style="fill:#f20308; stroke:none;" d="M1253 721L1254 722L1253 721z"/>
<path style="fill:#010101; stroke:none;" d="M1495 722L1496 728L1497 728L1495 722M1251 727L1250 731L1251 731L1251 727z"/>
<path style="fill:#d20509; stroke:none;" d="M1498.33 729.667L1498.67 730.333L1498.33 729.667z"/>
<path style="fill:#f20308; stroke:none;" d="M1248 732L1249 733L1248 732M1364 733L1334 766L1356.58 743L1364 733M1247 735L1247 738L1248 738L1247 735z"/>
<path style="fill:#010101; stroke:none;" d="M1499 736L1500 742L1501 742L1499 736z"/>
<path style="fill:#f20308; stroke:none;" d="M1246 738L1246 741L1247 741L1246 738M1245 742L1245 746L1246 746L1245 742z"/>
<path style="fill:#d20509; stroke:none;" d="M1502.33 743.667L1502.67 744.333L1502.33 743.667z"/>
<path style="fill:#f20308; stroke:none;" d="M1244 750L1244 758L1245 758L1244 750z"/>
<path style="fill:#010101; stroke:none;" d="M1503 750L1520 774L1521 774L1503 750z"/>
<path style="fill:#f20308; stroke:none;" d="M1245 761L1245 768L1246 768L1245 761z"/>
<path style="fill:#010101; stroke:none;" d="M1247 768L1247 775L1248 775L1247 768z"/>
<path style="fill:#f20308; stroke:none;" d="M1332 768L1323 779L1324 779L1332 768z"/>
<path style="fill:#d20509; stroke:none;" d="M1522 774L1523 775L1522 774z"/>
<path style="fill:#010101; stroke:none;" d="M1523 779L1524 783L1525 783L1523 779z"/>
<path style="fill:#d20509; stroke:none;" d="M1469 780L1469 781L1483 781L1469 780z"/>
<path style="fill:#f20308; stroke:none;" d="M1320 781L1314 788L1320 781z"/>
<path style="fill:#d20509; stroke:none;" d="M1494 781L1494 782L1500 782L1494 781M1479 782L1479 783L1482 783L1479 782M1501 782L1501 783L1506 783L1501 782M1506 783L1506 784L1510 784L1506 783M1526 783L1527 784L1526 783z"/>
<path style="fill:#010101; stroke:none;" d="M1482 784L1482 785L1485 785L1482 784z"/>
<path style="fill:#d20509; stroke:none;" d="M1511 784L1511 785L1514 785L1511 784M1491 785L1492 786L1491 785z"/>
<path style="fill:#010101; stroke:none;" d="M1520 785L1520 786L1523 786L1520 785z"/>
<path style="fill:#f20308; stroke:none;" d="M1248 787L1248 791L1249 791L1248 787z"/>
<path style="fill:#010101; stroke:none;" d="M1493 787L1493 788L1499 789L1499 788L1493 787z"/>
<path style="fill:#d20509; stroke:none;" d="M1523.67 787.333L1524.33 787.667L1523.67 787.333M1503 789L1504 790L1503 789z"/>
<path style="fill:#010101; stroke:none;" d="M1505 791L1505 792L1509 793L1509 792L1505 791z"/>
<path style="fill:#f20308; stroke:none;" d="M1308 793L1289 815C1294.6 811.488 1308.14 799.794 1308 793M1248.33 794.667L1248.67 795.333L1248.33 794.667z"/>
<path style="fill:#d20509; stroke:none;" d="M1514 794L1515 795L1514 794M1516 795L1517 796L1516 795z"/>
<path style="fill:#010101; stroke:none;" d="M1517.67 797.333L1518.33 797.667L1517.67 797.333M1521 799L1521 800L1524 801L1521 799z"/>
<path style="fill:#f20308; stroke:none;" d="M1247 800L1247 803L1248 803L1247 800z"/>
<path style="fill:#9e060a; stroke:none;" d="M1522 800L1523 801L1522 800z"/>
<path style="fill:#d20509; stroke:none;" d="M1526 801L1527 802L1526 801M1528 802L1529 803L1528 802z"/>
<path style="fill:#010101; stroke:none;" d="M1529 804L1530 805L1529 804z"/>
<path style="fill:#9e060a; stroke:none;" d="M1531 804L1532 805L1531 804z"/>
<path style="fill:#010101; stroke:none;" d="M1530.67 805.333L1531.33 805.667L1530.67 805.333M1532 806L1535 808L1535 807L1532 806M1246 808L1246 812L1247 812L1246 808M1535 808L1547 818L1535 808z"/>
<path style="fill:#9e060a; stroke:none;" d="M1536 808L1537 809L1536 808M1535 809L1536 810L1535 809z"/>
<path style="fill:#d20509; stroke:none;" d="M1537 809L1538 810L1537 809z"/>
<path style="fill:#9e060a; stroke:none;" d="M1538 809L1539 810L1538 809M1533 810L1534 811L1533 810M1533 815L1534 815L1535 812L1536 812L1531 818C1530.11 826.137 1517.24 835.988 1511.83 842C1495.78 859.839 1479.21 877.214 1463.07 895C1457.22 901.45 1449.54 913.44 1441 916C1440.46 920.98 1435.75 924.344 1432.58 928C1424.63 937.151 1415.07 951.838 1404 957C1401.34 966.503 1387 977.983 1380 985L1381 980L1379 989L1378 989L1380 950L1379 950L1378 1000L1377 1000L1377 992L1376 992C1376 1049.77 1368.06 1108.38 1364.09 1166C1362.78 1184.97 1360.88 1204.01 1360.04 1223C1359.57 1233.55 1360.48 1246.77 1357.68 1256.94C1356.15 1262.51 1336.55 1264.28 1331 1267.31C1313.69 1276.76 1304.01 1294.55 1304 1314L1389 1314L1389 1310L1390 1310L1390 1313L1391 1313L1393 1294L1394 1294L1394 1297L1395 1297L1397 1278L1398 1278L1398 1281L1399 1281L1401 1262L1402 1262L1402 1265L1403 1265L1406 1243L1407 1243L1407 1246L1408 1246L1409 1231L1410 1231L1411 1233L1413 1215L1414 1215L1414 1218L1415 1218L1417 1199L1418 1199L1418 1202L1419 1202L1421 1183L1422 1183L1422 1186L1423 1186L1425 1167L1426 1167L1426 1170L1427 1170L1429 1151L1430 1151L1430 1154L1431 1154L1442 1100L1443 1100L1443 1103L1444 1103L1446 1084L1447 1084L1447 1087L1448 1087L1450 1068L1451 1068L1451 1071L1452 1071L1453 1056L1454 1056L1455 1058L1458 1037L1459 1037L1459 1048L1460 1048L1460 1029L1461 1029L1460.04 1054L1460 1091L1463 1091C1466.12 1102.73 1477.82 1106.56 1489 1108L1489 1109L1487 1110L1511.09 1113.46L1572 1129L1572 1128L1570 1127L1573 1126C1575.53 1130.62 1581.8 1122.29 1583.78 1120C1590.78 1111.87 1598.22 1104.13 1605.22 1096C1608.3 1092.43 1612.47 1090.04 1612 1085C1618.34 1083.92 1629.1 1073.63 1629 1067C1638.47 1064.34 1645.64 1052.01 1652.09 1045C1670.18 1025.33 1692.23 1006.33 1707 984L1704 984L1705 979L1703 980L1705 978L1677.92 951.782L1649 922L1651 922L1618 887L1616 889L1586 854C1579.98 853.344 1578.6 847.044 1574.93 843C1567.35 834.645 1558.71 824.655 1549 818.88C1544.55 816.235 1535.83 806.143 1533 815M1539 810L1540 811L1539 810M1540 811L1541 812L1540 811z"/>
<path style="fill:#d20509; stroke:none;" d="M1541 812L1542 813L1541 812z"/>
<path style="fill:#9e060a; stroke:none;" d="M1542 812L1543 813L1542 812z"/>
<path style="fill:#f20308; stroke:none;" d="M1244 813L1244 816L1245 816L1244 813z"/>
<path style="fill:#d20509; stroke:none;" d="M1538 813L1539 814L1538 813z"/>
<path style="fill:#9e060a; stroke:none;" d="M1543 813L1544 814L1543 813z"/>
<path style="fill:#d20509; stroke:none;" d="M1542 814L1543 815L1542 814z"/>
<path style="fill:#9e060a; stroke:none;" d="M1544 814L1545 815L1544 814M1508 845C1496.59 846.463 1484.45 866.866 1476.91 875C1453.94 899.785 1431.8 925.432 1408.42 949.83C1399.92 958.705 1383.56 970.593 1381 983L1404 958L1399 962L1441 918L1438 919L1451 907L1446 911L1453 906L1531 820L1527 822L1535 815C1526.81 817.08 1508.36 836.602 1508 845M1545 815L1546 816L1545 815z"/>
<path style="fill:#d20509; stroke:none;" d="M1532 816L1533 817L1532 816z"/>
<path style="fill:#9e060a; stroke:none;" d="M1546 816L1547 817L1546 816z"/>
<path style="fill:#f20308; stroke:none;" d="M1287 817L1280 825L1287 817z"/>
<path style="fill:#9e060a; stroke:none;" d="M1547 817L1548 818L1547 817M1549 818L1550 819L1549 818z"/>
<path style="fill:#010101; stroke:none;" d="M1550 820C1557.01 829.949 1568.05 840.991 1578 848C1570.99 838.05 1559.95 827.009 1550 820z"/>
<path style="fill:#d20509; stroke:none;" d="M1526 822L1508 843C1513.39 839.797 1526.14 828.439 1526 822z"/>
<path style="fill:#010101; stroke:none;" d="M1243 823L1243 827L1244 827L1243 823z"/>
<path style="fill:#f20308; stroke:none;" d="M1279 826L1278 828L1279 826M1241 827L1241 831L1242 831L1241 827z"/>
<path style="fill:#d20509; stroke:none;" d="M1243 827L1244 828L1243 827z"/>
<path style="fill:#f20308; stroke:none;" d="M1275 830L1269 837L1275 830M1240.33 833.667L1240.67 834.333L1240.33 833.667M1239 839L1239 842L1240 842L1239 839z"/>
<path style="fill:#d20509; stroke:none;" d="M1239 842L1240 843L1239 842z"/>
<path style="fill:#010101; stroke:none;" d="M1239 843L1239 847L1240 847L1239 843z"/>
<path style="fill:#f20308; stroke:none;" d="M1261 845L1253 855L1261 845z"/>
<path style="fill:#d20509; stroke:none;" d="M1506 845L1498 854L1506 845z"/>
<path style="fill:#f20308; stroke:none;" d="M1237 847L1237 851L1238 851L1237 847z"/>
<path style="fill:#9e060a; stroke:none;" d="M1579 848L1580 849L1579 848M1581 850L1582 851L1581 850z"/>
<path style="fill:#d20509; stroke:none;" d="M1239 851L1239 852L1242 853L1239 851M1243 851L1245 853L1243 851z"/>
<path style="fill:#9e060a; stroke:none;" d="M1582.33 851.667L1582.67 852.333L1582.33 851.667M1237 852L1238 853L1237 852M1239 852L1240 855L1238 854L1238 855L1241 855L1242 859L1240 858L1242 862L1243 862L1242 859L1243 859L1245 864L1243 863L1244 866L1246 864L1246 870L1249 870L1252 877L1250 876L1250 877L1253 877L1255 883L1253 882L1253 883L1256 883L1260 892L1258 891L1258 892L1261 892L1265 901L1263 900L1263 901L1266 901L1266 907L1269 907L1272 914L1270 913L1270 914L1273 914L1275 920L1273 919L1273 920L1277 923L1275 922L1275 923L1278 923L1280 929L1278 928L1278 929L1281 929L1285 938L1283 937L1283 938L1286 938L1288 943L1289 943L1275 914C1279.7 911.807 1283.77 908.408 1284 903L1304 892L1304 891L1262 865L1239 852z"/>
<path style="fill:#62080a; stroke:none;" d="M1238 853L1239 854L1238 853z"/>
<path style="fill:#010101; stroke:none;" d="M1239.33 853.667L1239.67 854.333L1239.33 853.667z"/>
<path style="fill:#d20509; stroke:none;" d="M1243 853L1244 854L1243 853M1244 854L1245 855L1244 854M1246 855L1247 856L1246 855M1496 855L1454 902L1485.17 869L1496 855z"/>
<path style="fill:#010101; stroke:none;" d="M1584 855L1608 879L1584 855z"/>
<path style="fill:#d20509; stroke:none;" d="M1248 856L1249 857L1248 856z"/>
<path style="fill:#62080a; stroke:none;" d="M1240 857L1241 858L1240 857z"/>
<path style="fill:#010101; stroke:none;" d="M1241.33 857.667L1241.67 858.333L1241.33 857.667z"/>
<path style="fill:#d20509; stroke:none;" d="M1249 857L1250 858L1249 857M1251 858L1252 859L1251 858z"/>
<path style="fill:#010101; stroke:none;" d="M1242 859L1244 864L1245 864L1242 859z"/>
<path style="fill:#f20308; stroke:none;" d="M1254 859L1255 860L1254 859z"/>
<path style="fill:#d20509; stroke:none;" d="M1243 860L1244 861L1243 860z"/>
<path style="fill:#f20308; stroke:none;" d="M1255.67 860.333L1256.33 860.667L1255.67 860.333M1257 861L1258 862L1257 861z"/>
<path style="fill:#62080a; stroke:none;" d="M1243 862L1244 863L1243 862z"/>
<path style="fill:#f20308; stroke:none;" d="M1259 862L1260 863L1259 862M1260 863L1261 864L1260 863M1262 864L1263 865L1262 864M1265 866L1266 867L1265 866z"/>
<path style="fill:#9e060a; stroke:none;" d="M1245 867L1246 868L1245 867z"/>
<path style="fill:#010101; stroke:none;" d="M1247.33 868.667L1247.67 869.333L1247.33 868.667z"/>
<path style="fill:#f20308; stroke:none;" d="M1270 869L1271 870L1270 869z"/>
<path style="fill:#62080a; stroke:none;" d="M1268 870L1269 871L1268 870z"/>
<path style="fill:#d20509; stroke:none;" d="M1249 871L1250 872L1249 871z"/>
<path style="fill:#9e060a; stroke:none;" d="M1248 872L1249 873L1248 872z"/>
<path style="fill:#d20509; stroke:none;" d="M1250 873L1251 874L1250 873z"/>
<path style="fill:#62080a; stroke:none;" d="M1273 873L1275 875L1273 873z"/>
<path style="fill:#9e060a; stroke:none;" d="M1249 874L1250 875L1249 874z"/>
<path style="fill:#010101; stroke:none;" d="M1250 874L1251 877L1252 877L1250 874z"/>
<path style="fill:#62080a; stroke:none;" d="M1250 875L1251 876L1250 875M1276 875L1277 876L1276 875M1279 877L1280 878L1279 877M1281 878L1283 880L1281 878z"/>
<path style="fill:#9e060a; stroke:none;" d="M1252 879L1253 880L1252 879M1609 879L1610 880L1609 879z"/>
<path style="fill:#62080a; stroke:none;" d="M1284 880L1285 881L1284 880z"/>
<path style="fill:#9e060a; stroke:none;" d="M1610 880L1611 881L1610 880z"/>
<path style="fill:#62080a; stroke:none;" d="M1253 881L1254 882L1253 881z"/>
<path style="fill:#010101; stroke:none;" d="M1254.33 881.667L1254.67 882.333L1254.33 881.667z"/>
<path style="fill:#62080a; stroke:none;" d="M1286 881L1288 883L1286 881z"/>
<path style="fill:#9e060a; stroke:none;" d="M1611 881L1612 882L1611 881z"/>
<path style="fill:#010101; stroke:none;" d="M1255 883L1256 884L1255 883z"/>
<path style="fill:#62080a; stroke:none;" d="M1289 883L1291 885L1289 883z"/>
<path style="fill:#9e060a; stroke:none;" d="M1613 883L1616 886L1613 883z"/>
<path style="fill:#62080a; stroke:none;" d="M1255 884L1256 885L1255 884z"/>
<path style="fill:#9e060a; stroke:none;" d="M1255 885L1256 886L1255 885z"/>
<path style="fill:#62080a; stroke:none;" d="M1292 885L1273 908L1274 909C1277.5 906.502 1279.81 904.406 1280 900C1284.76 899.186 1287.79 895.863 1288 891L1291 891L1293 888L1292 890L1293 890L1293 887L1296 888L1293 895L1283 903C1288.83 901.521 1296.09 895.192 1296 889L1301 891L1301 890L1292 885z"/>
<path style="fill:#9e060a; stroke:none;" d="M1257 889L1258 890L1257 889z"/>
<path style="fill:#010101; stroke:none;" d="M1617 889C1624.82 900.105 1637.91 914.168 1649 922C1643.62 910.462 1627.38 896.31 1617 889z"/>
<path style="fill:#62080a; stroke:none;" d="M1258 890L1259 891L1258 890z"/>
<path style="fill:#010101; stroke:none;" d="M1259.33 890.667L1259.67 891.333L1259.33 890.667z"/>
<path style="fill:#9e060a; stroke:none;" d="M1289 890L1290 891L1289 890M1295 890L1293 893L1295 890z"/>
<path style="fill:#62080a; stroke:none;" d="M1284 903C1283.45 908.033 1278.94 911.226 1275 914C1281.51 942.726 1305.82 967.416 1316 995L1314 994L1314 995L1317 995L1321 1004L1319 1003L1319 1004L1322 1004L1329 1019L1327 1018L1327 1019L1330 1019L1331 1026L1332 1026L1331 1023L1332 1023L1336 1032L1334 1031L1336 1035L1338 1034L1341 1041L1340 1041L1339 1038L1338 1038C1345.16 1060.94 1340 1091.99 1340 1116L1341 1116L1341 1041L1342 1041L1343 1260L1314 1261L1314 1260L1318 1260L1318 1259L1309 1261L1311 1263L1302 1264L1302 1267L1296 1268L1295 1272C1286.78 1272.35 1282.8 1280.99 1281 1288L1278 1288L1278 1295L1277 1295L1276 1293L1274 1300L1275 1300L1276 1295L1277 1295L1274 1314L1304 1314C1304.05 1294.51 1314.86 1276.67 1332 1267.31C1336.84 1264.67 1356.38 1262.25 1357.68 1257.85C1359.65 1251.22 1358.52 1242.88 1359.17 1236C1360.94 1217.37 1361.81 1198.67 1363.09 1180C1366.66 1127.99 1370.51 1076.01 1374.09 1024C1375.42 1004.7 1376.34 985.251 1378.17 966C1378.85 958.848 1382.16 946.891 1379.4 940.104C1377.07 934.396 1366.98 930.663 1362 927.576C1348.36 919.122 1334.58 910.872 1321 902.319C1315.6 898.919 1307.78 891.935 1301.29 891.422C1294.42 890.879 1290.34 901.124 1284 903z"/>
<path style="fill:#9e060a; stroke:none;" d="M1305 892L1306 893L1305 892M1287 893L1281 900L1287 893M1306.67 893.333L1307.33 893.667L1306.67 893.333M1260 894L1261 895L1260 894M1308 894L1309 895L1308 894M1291 895L1285 902L1291 895M1309.67 895.333L1310.33 895.667L1309.67 895.333z"/>
<path style="fill:#62080a; stroke:none;" d="M1261 896L1262 897L1261 896z"/>
<path style="fill:#010101; stroke:none;" d="M1262 896L1264 901L1265 901L1262 896z"/>
<path style="fill:#9e060a; stroke:none;" d="M1311.67 896.333L1312.33 896.667L1311.67 896.333M1261 897L1262 898L1261 897z"/>
<path style="fill:#d20509; stroke:none;" d="M1263 897L1264 898L1263 897z"/>
<path style="fill:#9e060a; stroke:none;" d="M1313 897L1314 898L1313 897M1262 898L1263 899L1262 898M1314.67 898.333L1315.33 898.667L1314.67 898.333z"/>
<path style="fill:#62080a; stroke:none;" d="M1263 899L1264 900L1263 899z"/>
<path style="fill:#9e060a; stroke:none;" d="M1316 899L1317 900L1316 899M1318 900L1319 901L1318 900M1319.67 901.333L1320.33 901.667L1319.67 901.333M1279 902L1274 908L1279 902M1321 902L1322 903L1321 902M1322.67 903.333L1323.33 903.667L1322.67 903.333M1265 904L1266 905L1265 904z"/>
<path style="fill:#62080a; stroke:none;" d="M1282 904L1273 911L1272 908L1271 908L1274 914L1284 905L1282 904z"/>
<path style="fill:#9e060a; stroke:none;" d="M1324.67 904.333L1325.33 904.667L1324.67 904.333z"/>
<path style="fill:#d20509; stroke:none;" d="M1451 904L1452 905L1451 904z"/>
<path style="fill:#010101; stroke:none;" d="M1267.33 905.667L1267.67 906.333L1267.33 905.667z"/>
<path style="fill:#9e060a; stroke:none;" d="M1282 905L1276 912L1282 905M1326 905L1327 906L1326 905M1327.67 906.333L1328.33 906.667L1327.67 906.333z"/>
<path style="fill:#010101; stroke:none;" d="M1268 907L1269 908L1268 907z"/>
<path style="fill:#9e060a; stroke:none;" d="M1329 907L1330 908L1329 907z"/>
<path style="fill:#62080a; stroke:none;" d="M1268 908L1269 909L1268 908z"/>
<path style="fill:#9e060a; stroke:none;" d="M1331 908L1332 909L1331 908M1268 909L1269 910L1268 909M1332.67 909.333L1333.33 909.667L1332.67 909.333M1334 910L1335 911L1334 910M1269 911L1270 912L1269 911M1274 911L1275 912L1274 911M1335.67 911.333L1336.33 911.667L1335.67 911.333z"/>
<path style="fill:#d20509; stroke:none;" d="M1445 911L1442 915L1445 911z"/>
<path style="fill:#62080a; stroke:none;" d="M1270 912L1271 913L1270 912z"/>
<path style="fill:#010101; stroke:none;" d="M1271.33 912.667L1271.67 913.333L1271.33 912.667z"/>
<path style="fill:#9e060a; stroke:none;" d="M1337.67 912.333L1338.33 912.667L1337.67 912.333M1339 913L1340 914L1339 913M1340.67 914.333L1341.33 914.667L1340.67 914.333M1342 915L1343 916L1342 915M1272 916L1273 917L1272 916M1344 916L1345 917L1344 916M1345.67 917.333L1346.33 917.667L1345.67 917.333z"/>
<path style="fill:#62080a; stroke:none;" d="M1273 918L1274 919L1273 918z"/>
<path style="fill:#010101; stroke:none;" d="M1274.33 918.667L1274.67 919.333L1274.33 918.667z"/>
<path style="fill:#9e060a; stroke:none;" d="M1347 918L1348 919L1347 918M1349 919L1350 920L1349 919z"/>
<path style="fill:#d20509; stroke:none;" d="M1437 919L1409 951L1430.42 929L1437 919z"/>
<path style="fill:#010101; stroke:none;" d="M1275 920L1276 923L1277 923L1275 920z"/>
<path style="fill:#9e060a; stroke:none;" d="M1350.67 920.333L1351.33 920.667L1350.67 920.333z"/>
<path style="fill:#62080a; stroke:none;" d="M1275 921L1276 922L1275 921z"/>
<path style="fill:#9e060a; stroke:none;" d="M1352 921L1353 922L1352 921M1353.67 922.333L1354.33 922.667L1353.67 922.333M1651 922L1652 923L1651 922M1355 923L1356 924L1355 923M1357 924L1358 925L1357 924M1358.67 925.333L1359.33 925.667L1358.67 925.333z"/>
<path style="fill:#010101; stroke:none;" d="M1652 925L1674 947L1652 925z"/>
<path style="fill:#9e060a; stroke:none;" d="M1277 926L1278 927L1277 926M1360 926L1361 927L1360 926z"/>
<path style="fill:#62080a; stroke:none;" d="M1278 927L1279 928L1278 927z"/>
<path style="fill:#010101; stroke:none;" d="M1279.33 927.667L1279.67 928.333L1279.33 927.667z"/>
<path style="fill:#9e060a; stroke:none;" d="M1361.67 927.333L1362.33 927.667L1361.67 927.333M1363.67 928.333L1364.33 928.667L1363.67 928.333M1365 929L1366 930L1365 929z"/>
<path style="fill:#d20509; stroke:none;" d="M1281 930L1282 931L1281 930z"/>
<path style="fill:#9e060a; stroke:none;" d="M1366.67 930.333L1367.33 930.667L1366.67 930.333M1280 931L1281 932L1280 931M1368 931L1369 932L1368 931M1370 932L1371 933L1370 932z"/>
<path style="fill:#62080a; stroke:none;" d="M1281 933L1282 934L1281 933z"/>
<path style="fill:#010101; stroke:none;" d="M1282 933L1284 938L1285 938L1282 933z"/>
<path style="fill:#9e060a; stroke:none;" d="M1371.67 933.333L1372.33 933.667L1371.67 933.333M1281 934L1282 935L1281 934z"/>
<path style="fill:#f20308; stroke:none;" d="M1283 934L1284 935L1283 934z"/>
<path style="fill:#9e060a; stroke:none;" d="M1373 934L1374 935L1373 934M1282 935L1283 936L1282 935M1374.67 935.333L1375.33 935.667L1374.67 935.333z"/>
<path style="fill:#62080a; stroke:none;" d="M1283 936L1284 937L1283 936z"/>
<path style="fill:#9e060a; stroke:none;" d="M1376.67 936.333L1377.33 936.667L1376.67 936.333M1378 937L1379 938L1378 937M1379 938L1380 947L1381 947L1379 938M1285 941L1286 942L1285 941z"/>
<path style="fill:#62080a; stroke:none;" d="M1286 942L1287 943L1286 942z"/>
<path style="fill:#010101; stroke:none;" d="M1287 942L1289 945L1287 942z"/>
<path style="fill:#9e060a; stroke:none;" d="M1286 943L1287 944L1286 943z"/>
<path style="fill:#d20509; stroke:none;" d="M1288 943L1289 944L1288 943z"/>
<path style="fill:#9e060a; stroke:none;" d="M1287 944L1288 945L1287 944M1289 944L1290 945L1289 944z"/>
<path style="fill:#62080a; stroke:none;" d="M1288 945L1289 946L1288 945z"/>
<path style="fill:#9e060a; stroke:none;" d="M1288 946L1289 947L1288 946M1290 946L1291 947L1290 946M1291 947L1293 953L1291 952L1291 953L1293 954L1291 947M1675 947L1676 948L1675 947z"/>
<path style="fill:#62080a; stroke:none;" d="M1289 948L1290 949L1289 948z"/>
<path style="fill:#9e060a; stroke:none;" d="M1676 948L1677 949L1676 948z"/>
<path style="fill:#62080a; stroke:none;" d="M1290 949L1291 950L1290 949z"/>
<path style="fill:#010101; stroke:none;" d="M1291 949L1292 953L1293 953L1291 949z"/>
<path style="fill:#9e060a; stroke:none;" d="M1677 949L1678 950L1677 949M1290 950L1291 951L1290 950M1678 950L1679 951L1678 950z"/>
<path style="fill:#62080a; stroke:none;" d="M1291 951L1292 952L1291 951z"/>
<path style="fill:#9e060a; stroke:none;" d="M1679 951L1680 952L1679 951M1680 952L1681 953L1680 952M1294 953L1295 957L1293 956L1293 957L1297 958L1294 953z"/>
<path style="fill:#d20509; stroke:none;" d="M1406 953L1405 955L1406 953z"/>
<path style="fill:#62080a; stroke:none;" d="M1293 955L1294 956L1293 955z"/>
<path style="fill:#010101; stroke:none;" d="M1294.33 955.667L1294.67 956.333L1294.33 955.667M1681 955L1703 977L1681 955M1295 957L1296 960L1297 960L1295 957z"/>
<path style="fill:#62080a; stroke:none;" d="M1295 958L1296 959L1295 958z"/>
<path style="fill:#9e060a; stroke:none;" d="M1295 959L1296 960L1295 959M1297 959L1298 960L1297 959M1296 960L1297 961L1296 960M1298.33 960.667L1298.67 961.333L1298.33 960.667M1299 962L1301 967L1302 967L1299 962z"/>
<path style="fill:#d20509; stroke:none;" d="M1398 962L1382 980C1387.62 976.661 1396.51 968.481 1398 962z"/>
<path style="fill:#9e060a; stroke:none;" d="M1297 963L1298 964L1297 963z"/>
<path style="fill:#62080a; stroke:none;" d="M1298 964L1299 965L1298 964z"/>
<path style="fill:#010101; stroke:none;" d="M1299 964L1301 967L1299 964z"/>
<path style="fill:#9e060a; stroke:none;" d="M1298 965L1299 966L1298 965z"/>
<path style="fill:#62080a; stroke:none;" d="M1299 966L1300 967L1299 966M1300 967L1301 968L1300 967z"/>
<path style="fill:#f20308; stroke:none;" d="M1301 967L1302 968L1301 967z"/>
<path style="fill:#62080a; stroke:none;" d="M1935 970L1934 970L1933 968L1932 979L1930 977L1929 988C1924.32 988.566 1924.54 997.839 1924 1002L1923 1002L1922 1000L1920 1013L1919 1013L1918 1011L1916 1024L1915 1022L1914 1022L1912 1036L1911 1036L1910 1034L1908 1047L1907 1047L1906 1045L1904 1058L1903 1056L1902 1056L1900 1070L1899 1070L1898 1068L1896 1081L1895 1081L1894 1079L1888 1104L1887 1104L1886 1102L1884 1115L1883 1115L1882 1113L1876 1138L1875 1138L1874 1136L1872 1149L1871 1149L1870 1147L1869 1156C1878.03 1154.16 1896.6 1138.48 1897 1129C1903.98 1127.23 1909.21 1119.27 1912 1113L1913 1113L1912 1120L1911 1120L1910 1118L1908 1130L1907 1130L1906 1128L1904 1138C1900.03 1138.86 1900.3 1142.37 1900 1146C1894.11 1147.22 1888.39 1160.31 1889 1166L1886 1166L1884 1174L1880 1175L1881 1178C1877.54 1178.7 1877 1180.58 1877 1184C1873.43 1184.69 1872.87 1186.46 1873 1190C1865.63 1191.92 1861.77 1201.26 1860 1208C1863.24 1207.52 1865.6 1207.43 1866 1204C1869.54 1204.13 1871.31 1203.57 1872 1200C1875.12 1200.29 1876.37 1200.14 1877 1197C1880.64 1196.11 1884.19 1195.97 1885 1192C1888.12 1192.29 1889.37 1192.14 1890 1189C1893.64 1188.11 1897.19 1187.97 1898 1184L1904 1183L1905 1186C1902.11 1186.31 1901.93 1187.08 1902 1190L1881 1210L1871 1220L1873 1222C1864.71 1225.09 1843.6 1239.05 1842 1248C1839.08 1247.93 1838.31 1248.11 1838 1251C1834.1 1251 1831.74 1252.05 1831 1256L1824 1258L1825 1260L1824 1261L1818 1262L1819 1264L1818 1265C1814.88 1264.71 1813.63 1264.86 1813 1268C1809.88 1267.71 1808.63 1267.86 1808 1271L1798 1274L1800 1276L1794 1276L1794 1279L1787 1282L1780.09 1119L1779.04 1080L1779 1054L1766 1042L1768 1043C1762.81 1035.63 1752.09 1022.01 1743 1020L1745 1018L1742 1016L1742 1018L1734 1009L1736 1010C1732.18 1004.58 1725.72 996.148 1719 995L1718 994L1719 992L1718 991L1715 991L1716 988L1715 988L1714 990L1712 984L1710 986L1705 981L1704 984L1707 984C1688.94 1003.61 1671.2 1023.49 1653.02 1043C1645.8 1050.75 1638.74 1062.46 1629 1067C1627.55 1073.36 1618.3 1083.11 1612 1085C1612.06 1089.53 1608.02 1091.75 1605.22 1095C1598.22 1103.13 1590.78 1110.87 1583.78 1119C1581.95 1121.12 1575.51 1129.79 1573 1126L1570 1127L1572 1128L1572 1129L1525 1116.75L1505 1112L1504 1112L1506 1118L1507 1116L1508 1116L1510 1127L1511 1125L1512 1125L1514 1136L1515 1134L1516 1134C1516.68 1138.43 1519.89 1152.52 1524 1153L1526 1164L1528 1162L1530 1173L1532 1171L1534 1182L1535 1180L1536 1180L1539 1190L1538 1190L1538 1188L1537 1188L1540 1190L1542 1197L1541 1197L1541 1195L1540 1195L1544 1199C1544.51 1203.37 1543.89 1208.93 1549 1210L1551 1221L1552 1219L1553 1219L1555 1230L1556 1228L1557 1228L1561 1245L1564 1245C1564.51 1249.37 1563.89 1254.93 1569 1256L1570 1260L1448 1261L1448 1260L1452 1260L1452 1259L1443 1261L1445 1263L1436 1264L1436 1267L1430 1268L1429 1272C1423.79 1272.22 1420.22 1275.79 1420 1281L1416 1282L1415 1288L1413 1287L1411 1298L1410 1298L1409 1296L1407 1305L1408 1305L1408 1301L1409 1301L1408 1314L1744 1314L1848 1314L1863.91 1313.69L1875 1310L1878 1305L1877 1304L1874 1306C1877.69 1300.75 1886.28 1296.68 1886 1290L1887 1290L1888 1293L1889 1293L1901 1272L1903 1273L1902 1270C1907.91 1267.98 1911.48 1258.4 1914 1253L1916 1254L1917 1253C1916.66 1249.75 1920.31 1238.42 1924 1241L1925 1234L1928 1234L1930 1226L1933 1226L1934 1219L1936 1221L1939 1211C1942.14 1210.37 1942.29 1209.12 1942 1206C1948.24 1204.75 1949.68 1196.41 1951 1191C1954.14 1190.37 1954.29 1189.12 1954 1186C1960.4 1184.72 1961.4 1176.38 1963 1171L1965 1172C1969.87 1161.07 1965.92 1145.52 1965 1134L1964 1134L1964 1139L1963 1139L1961 1108L1960 1108L1960 1113L1959 1113L1957 1082L1956 1082L1956 1087L1955 1087L1949 1031L1948 1031L1948 1036L1947 1036L1941 979L1940 979L1940 984L1939 984L1936 967L1935 970z"/>
<path style="fill:#9e060a; stroke:none;" d="M1300 968L1301 969L1300 968M1302 968L1303 969L1302 968z"/>
<path style="fill:#d20509; stroke:none;" d="M1302 969L1303 970L1302 969z"/>
<path style="fill:#62080a; stroke:none;" d="M1301 970L1302 971L1301 970z"/>
<path style="fill:#9e060a; stroke:none;" d="M1303 970L1304 971L1303 970z"/>
<path style="fill:#010101; stroke:none;" d="M1933 970L1933 973L1934 973L1933 970z"/>
<path style="fill:#9e060a; stroke:none;" d="M1302 972L1303 973L1302 972M1304 972L1305 973L1304 972z"/>
<path style="fill:#62080a; stroke:none;" d="M1939.33 972.667L1939.67 973.333L1939.33 972.667M1303 973L1304 974L1303 973z"/>
<path style="fill:#010101; stroke:none;" d="M1304.33 973.667L1304.67 974.333L1304.33 973.667z"/>
<path style="fill:#9e060a; stroke:none;" d="M1303 974L1304 975L1303 974M1305 974L1306 975L1305 974M1304 975L1305 976L1304 975z"/>
<path style="fill:#62080a; stroke:none;" d="M1931 975L1932 976L1931 975z"/>
<path style="fill:#9e060a; stroke:none;" d="M1306 976L1307 977L1306 976z"/>
<path style="fill:#010101; stroke:none;" d="M1703 977L1705 979L1703 977z"/>
<path style="fill:#9e060a; stroke:none;" d="M1305 978L1306 979L1305 978M1307 978L1308 979L1307 978z"/>
<path style="fill:#62080a; stroke:none;" d="M1703.33 978.667L1703.67 979.333L1703.33 978.667M1705 978L1706 979L1705 978M1306 979L1307 980L1306 979z"/>
<path style="fill:#010101; stroke:none;" d="M1307 979L1309 982L1307 979z"/>
<path style="fill:#62080a; stroke:none;" d="M1706 979L1707 980L1706 979z"/>
<path style="fill:#010101; stroke:none;" d="M1930 979L1929 984L1930 984L1930 979z"/>
<path style="fill:#9e060a; stroke:none;" d="M1306 980L1307 981L1306 980z"/>
<path style="fill:#d20509; stroke:none;" d="M1308 980L1309 981L1308 980z"/>
<path style="fill:#62080a; stroke:none;" d="M1707 980L1708 981L1707 980z"/>
<path style="fill:#9e060a; stroke:none;" d="M1307 981L1308 982L1307 981M1309 981L1310 982L1309 981M1708 981L1709 982L1708 981z"/>
<path style="fill:#62080a; stroke:none;" d="M1308 982L1309 983L1308 982z"/>
<path style="fill:#9e060a; stroke:none;" d="M1308 983L1309 984L1308 983M1310 983L1311 984L1310 983z"/>
<path style="fill:#62080a; stroke:none;" d="M1678 1015C1672.33 1014.92 1669.37 1020.07 1665.83 1024C1657.72 1033.01 1649.37 1041.85 1641.42 1051C1637.96 1054.99 1633.23 1058.49 1633 1064C1625.88 1063.89 1619.69 1074 1615.29 1079C1601.61 1094.53 1584.65 1108.96 1573 1126L1576 1124L1575 1127L1576 1127L1584 1115L1585 1114C1594.19 1112.43 1606.69 1094.54 1612 1087L1609 1088C1628.6 1071 1649.93 1050.42 1665 1029L1660 1033L1706 984C1697.68 986.111 1678.36 1006.51 1678 1015z"/>
<path style="fill:#9e060a; stroke:none;" d="M1710 984L1711 985L1710 984z"/>
<path style="fill:#010101; stroke:none;" d="M1940 984L1940 990L1941 990L1940 984z"/>
<path style="fill:#62080a; stroke:none;" d="M1309 985L1310 986L1309 985z"/>
<path style="fill:#9e060a; stroke:none;" d="M1311 985L1312 986L1311 985M1703 985L1678 1013C1685.12 1007.99 1701.39 993.78 1703 985z"/>
<path style="fill:#010101; stroke:none;" d="M1710 985L1711 986L1710 985z"/>
<path style="fill:#62080a; stroke:none;" d="M1310 986L1311 987L1310 986z"/>
<path style="fill:#010101; stroke:none;" d="M1311 986L1312 990L1313 990L1311 986M1711 986L1712 987L1711 986z"/>
<path style="fill:#9e060a; stroke:none;" d="M1310 987L1311 988L1310 987M1312 987L1313 988L1312 987z"/>
<path style="fill:#010101; stroke:none;" d="M1712 987L1715 990L1712 987z"/>
<path style="fill:#9e060a; stroke:none;" d="M1713 987L1714 988L1713 987z"/>
<path style="fill:#62080a; stroke:none;" d="M1311 988L1312 989L1311 988z"/>
<path style="fill:#9e060a; stroke:none;" d="M1714 988L1715 989L1714 988z"/>
<path style="fill:#010101; stroke:none;" d="M1927 988L1926 993L1927 993L1927 988z"/>
<path style="fill:#9e060a; stroke:none;" d="M1311 989L1312 990L1311 989M1313 989L1314 990L1313 989M1312 990L1313 991L1312 990M1314.33 990.667L1314.67 991.333L1314.33 990.667z"/>
<path style="fill:#010101; stroke:none;" d="M1715 990L1717 992L1715 990z"/>
<path style="fill:#9e060a; stroke:none;" d="M1716 990L1717 991L1716 990z"/>
<path style="fill:#62080a; stroke:none;" d="M1942 990L1942 995L1943 995L1942 990z"/>
<path style="fill:#d20509; stroke:none;" d="M1377 991L1377 1000L1378 1000L1377 991z"/>
<path style="fill:#62080a; stroke:none;" d="M1313 992L1314 993L1313 992z"/>
<path style="fill:#010101; stroke:none;" d="M1314 992L1316 995L1314 992M1717 992L1718 993L1717 992z"/>
<path style="fill:#9e060a; stroke:none;" d="M1313 993L1314 994L1313 993M1315 993L1316 994L1315 993z"/>
<path style="fill:#010101; stroke:none;" d="M1718 993L1720 995L1718 993z"/>
<path style="fill:#9e060a; stroke:none;" d="M1719 993L1720 994L1719 993z"/>
<path style="fill:#62080a; stroke:none;" d="M1924.33 993.667L1924.67 994.333L1924.33 993.667z"/>
<path style="fill:#010101; stroke:none;" d="M1316.33 995.667L1316.67 996.333L1316.33 995.667M1720 995L1734 1009L1720 995z"/>
<path style="fill:#9e060a; stroke:none;" d="M1315 996L1316 997L1315 996M1317 996L1318 997L1317 996z"/>
<path style="fill:#62080a; stroke:none;" d="M1316 997L1317 998L1316 997z"/>
<path style="fill:#9e060a; stroke:none;" d="M1318 998L1319 999L1318 998z"/>
<path style="fill:#62080a; stroke:none;" d="M1923 998L1924 999L1923 998M1943.33 998.667L1943.67 999.333L1943.33 998.667M1317 1000L1318 1001L1317 1000z"/>
<path style="fill:#9e060a; stroke:none;" d="M1319 1000L1320 1001L1319 1000z"/>
<path style="fill:#62080a; stroke:none;" d="M1318 1001L1319 1002L1318 1001z"/>
<path style="fill:#010101; stroke:none;" d="M1319 1001L1321 1004L1319 1001z"/>
<path style="fill:#9e060a; stroke:none;" d="M1318 1002L1319 1003L1318 1002M1320 1002L1321 1003L1320 1002z"/>
<path style="fill:#010101; stroke:none;" d="M1922 1002L1921 1007L1922 1007L1922 1002z"/>
<path style="fill:#9e060a; stroke:none;" d="M1320 1005L1321 1006L1320 1005z"/>
<path style="fill:#62080a; stroke:none;" d="M1944 1005L1944 1010L1945 1010L1944 1005M1321 1007L1322 1008L1321 1007M1322 1009L1323 1010L1322 1009z"/>
<path style="fill:#9e060a; stroke:none;" d="M1324 1009L1325 1010L1324 1009z"/>
<path style="fill:#010101; stroke:none;" d="M1734 1009L1735 1010L1734 1009z"/>
<path style="fill:#62080a; stroke:none;" d="M1323 1010L1324 1011L1323 1010z"/>
<path style="fill:#010101; stroke:none;" d="M1324.33 1010.67L1324.67 1011.33L1324.33 1010.67z"/>
<path style="fill:#9e060a; stroke:none;" d="M1734 1010L1735 1011L1734 1010z"/>
<path style="fill:#62080a; stroke:none;" d="M1736 1010L1737 1011L1736 1010M1945 1010L1945 1015L1946 1015L1945 1010z"/>
<path style="fill:#9e060a; stroke:none;" d="M1323 1011L1324 1012L1323 1011M1325 1011L1326 1012L1325 1011z"/>
<path style="fill:#62080a; stroke:none;" d="M1324 1012L1325 1013L1324 1012M1738 1012L1741 1015L1738 1012z"/>
<path style="fill:#9e060a; stroke:none;" d="M1326 1013L1327 1014L1326 1013z"/>
<path style="fill:#010101; stroke:none;" d="M1918 1013L1917 1018L1918 1018L1918 1013z"/>
<path style="fill:#62080a; stroke:none;" d="M1325 1014L1327 1017L1325 1014z"/>
<path style="fill:#010101; stroke:none;" d="M1326 1014L1328 1019L1329 1019L1326 1014z"/>
<path style="fill:#9e060a; stroke:none;" d="M1327 1015L1328 1016L1327 1015M1676 1015L1665 1027L1676 1015z"/>
<path style="fill:#62080a; stroke:none;" d="M1946 1016L1946 1021L1947 1021L1946 1016z"/>
<path style="fill:#9e060a; stroke:none;" d="M1326 1017L1327 1018L1326 1017z"/>
<path style="fill:#f20308; stroke:none;" d="M1328 1017L1329 1018L1328 1017z"/>
<path style="fill:#010101; stroke:none;" d="M1463 1017L1462 1030L1463 1030L1463 1017M1742 1018L1743 1019L1742 1018z"/>
<path style="fill:#62080a; stroke:none;" d="M1915 1019L1916 1020L1915 1019z"/>
<path style="fill:#9e060a; stroke:none;" d="M1328 1020L1329 1021L1328 1020z"/>
<path style="fill:#010101; stroke:none;" d="M1745 1021L1766 1042L1745 1021z"/>
<path style="fill:#62080a; stroke:none;" d="M1329 1022L1330 1023L1329 1022z"/>
<path style="fill:#010101; stroke:none;" d="M1331 1023L1332 1027L1333 1027L1331 1023z"/>
<path style="fill:#62080a; stroke:none;" d="M1947 1023L1947 1026L1948 1026L1947 1023z"/>
<path style="fill:#9e060a; stroke:none;" d="M1332 1024L1333 1025L1332 1024z"/>
<path style="fill:#010101; stroke:none;" d="M1914.33 1025.67L1914.67 1026.33L1914.33 1025.67z"/>
<path style="fill:#9e060a; stroke:none;" d="M1331 1026L1332 1027L1331 1026M1333 1026L1334 1027L1333 1026z"/>
<path style="fill:#62080a; stroke:none;" d="M1332 1027L1333 1028L1332 1027M1912.33 1027.67L1912.67 1028.33L1912.33 1027.67M1333 1029L1334 1030L1333 1029z"/>
<path style="fill:#9e060a; stroke:none;" d="M1335 1030L1336 1031L1335 1030z"/>
<path style="fill:#62080a; stroke:none;" d="M1911 1030L1912 1031L1911 1030z"/>
<path style="fill:#010101; stroke:none;" d="M1335 1031L1336 1032L1335 1031M1336.33 1032.67L1336.67 1033.33L1336.33 1032.67M1459 1033L1459 1037L1460 1037L1459 1033z"/>
<path style="fill:#9e060a; stroke:none;" d="M1659 1033L1633 1062C1640.61 1056.64 1657.01 1042.32 1659 1033M1338 1035L1339 1036L1338 1035z"/>
<path style="fill:#010101; stroke:none;" d="M1910 1036L1909 1041L1910 1041L1910 1036M1948 1036L1948 1041L1949 1041L1948 1036z"/>
<path style="fill:#62080a; stroke:none;" d="M1337 1037L1338 1038L1337 1037z"/>
<path style="fill:#9e060a; stroke:none;" d="M1339 1037L1340 1038L1339 1037z"/>
<path style="fill:#010101; stroke:none;" d="M1339 1038L1341 1041L1339 1038z"/>
<path style="fill:#9e060a; stroke:none;" d="M1340 1039L1341 1040L1340 1039z"/>
<path style="fill:#62080a; stroke:none;" d="M1950 1041L1950 1046L1951 1046L1950 1041z"/>
<path style="fill:#010101; stroke:none;" d="M1766 1042L1767 1043L1766 1042z"/>
<path style="fill:#62080a; stroke:none;" d="M1907 1042L1908 1043L1907 1042z"/>
<path style="fill:#9e060a; stroke:none;" d="M1766 1043L1767 1044L1766 1043z"/>
<path style="fill:#62080a; stroke:none;" d="M1768 1043L1769 1044L1768 1043M1769 1044L1770 1045L1769 1044M1770 1045L1771 1046L1770 1045z"/>
<path style="fill:#9e060a; stroke:none;" d="M1457 1046L1457 1049L1458 1049L1457 1046z"/>
<path style="fill:#62080a; stroke:none;" d="M1771 1046L1772 1047L1771 1046M1772 1047L1773 1048L1772 1047z"/>
<path style="fill:#010101; stroke:none;" d="M1906 1047L1905 1052L1906 1052L1906 1047z"/>
<path style="fill:#62080a; stroke:none;" d="M1773 1048L1774 1049L1773 1048z"/>
<path style="fill:#010101; stroke:none;" d="M1455 1049L1454 1056L1455 1056L1455 1049z"/>
<path style="fill:#62080a; stroke:none;" d="M1774 1049L1775 1050L1774 1049M1951 1049L1951 1052L1952 1052L1951 1049M1775 1050L1776 1051L1775 1050M1776 1051L1777 1052L1776 1051M1903 1053L1904 1054L1903 1053z"/>
<path style="fill:#010101; stroke:none;" d="M1778 1055L1778 1075L1779 1075L1778 1055z"/>
<path style="fill:#62080a; stroke:none;" d="M1952 1057L1952 1061L1953 1061L1952 1057z"/>
<path style="fill:#010101; stroke:none;" d="M1902.33 1059.67L1902.67 1060.33L1902.33 1059.67z"/>
<path style="fill:#62080a; stroke:none;" d="M1900.33 1061.67L1900.67 1062.33L1900.33 1061.67z"/>
<path style="fill:#9e060a; stroke:none;" d="M1453 1062L1453 1065L1454 1065L1453 1062z"/>
<path style="fill:#62080a; stroke:none;" d="M1953 1062L1953 1067L1954 1067L1953 1062z"/>
<path style="fill:#9e060a; stroke:none;" d="M1458 1063L1458 1073L1459 1073L1458 1063M1631 1064L1632 1065L1631 1064z"/>
<path style="fill:#62080a; stroke:none;" d="M1899 1064L1900 1065L1899 1064z"/>
<path style="fill:#010101; stroke:none;" d="M1451 1065L1451 1068L1452 1068L1451 1065z"/>
<path style="fill:#62080a; stroke:none;" d="M1954 1067L1954 1072L1955 1072L1954 1067z"/>
<path style="fill:#9e060a; stroke:none;" d="M1627 1068L1613 1084L1627 1068z"/>
<path style="fill:#010101; stroke:none;" d="M1898 1070L1897 1075L1898 1075L1898 1070z"/>
<path style="fill:#9e060a; stroke:none;" d="M1450.33 1072.67L1450.67 1073.33L1450.33 1072.67z"/>
<path style="fill:#62080a; stroke:none;" d="M1955 1074L1955 1077L1956 1077L1955 1074M1780 1075L1780 1094L1781 1094L1780 1075M1895.33 1075.67L1895.67 1076.33L1895.33 1075.67z"/>
<path style="fill:#9e060a; stroke:none;" d="M1449 1078L1449 1081L1450 1081L1449 1078M1458 1080L1458 1083L1459 1083L1458 1080z"/>
<path style="fill:#010101; stroke:none;" d="M1447 1081L1447 1084L1448 1084L1447 1081M1894 1081L1893 1086L1894 1086L1894 1081z"/>
<path style="fill:#9e060a; stroke:none;" d="M1459.33 1087.67L1459.67 1088.33L1459.33 1087.67z"/>
<path style="fill:#62080a; stroke:none;" d="M1891 1087L1892 1088L1891 1087z"/>
<path style="fill:#010101; stroke:none;" d="M1956 1087L1956 1093L1957 1093L1956 1087z"/>
<path style="fill:#9e060a; stroke:none;" d="M1446.33 1088.67L1446.67 1089.33L1446.33 1088.67M1608 1088L1586 1114L1587 1114C1592.29 1107.06 1607.44 1096.85 1608 1088z"/>
<path style="fill:#010101; stroke:none;" d="M1461.33 1089.67L1461.67 1090.33L1461.33 1089.67z"/>
<path style="fill:#62080a; stroke:none;" d="M1890 1091L1891 1092L1890 1091z"/>
<path style="fill:#9e060a; stroke:none;" d="M1462 1093L1463 1094L1462 1093z"/>
<path style="fill:#62080a; stroke:none;" d="M1889.33 1093.67L1889.67 1094.33L1889.33 1093.67M1958 1093L1958 1098L1959 1098L1958 1093z"/>
<path style="fill:#9e060a; stroke:none;" d="M1445.33 1094.67L1445.67 1095.33L1445.33 1094.67M1463 1095L1464 1096L1463 1095z"/>
<path style="fill:#62080a; stroke:none;" d="M1888.33 1095.67L1888.67 1096.33L1888.33 1095.67z"/>
<path style="fill:#010101; stroke:none;" d="M1465 1096L1471 1102L1465 1096M1443 1097L1443 1100L1444 1100L1443 1097z"/>
<path style="fill:#62080a; stroke:none;" d="M1887.33 1098.67L1887.67 1099.33L1887.33 1098.67M1781 1100L1781 1113L1782 1113L1781 1100M1959 1100L1959 1103L1960 1103L1959 1100z"/>
<path style="fill:#9e060a; stroke:none;" d="M1471 1103L1472 1104L1471 1103z"/>
<path style="fill:#62080a; stroke:none;" d="M1474 1103L1475 1104L1474 1103z"/>
<path style="fill:#010101; stroke:none;" d="M1916 1103L1917 1104L1916 1103z"/>
<path style="fill:#9e060a; stroke:none;" d="M1442.33 1104.67L1442.67 1105.33L1442.33 1104.67M1473 1104L1474 1105L1473 1104z"/>
<path style="fill:#010101; stroke:none;" d="M1886 1104L1885 1109L1886 1109L1886 1104z"/>
<path style="fill:#9e060a; stroke:none;" d="M1475 1105L1476 1106L1475 1105z"/>
<path style="fill:#010101; stroke:none;" d="M1915 1105L1899 1128L1912 1111L1913 1113L1914 1113L1913 1110L1915 1105z"/>
<path style="fill:#9e060a; stroke:none;" d="M1476.67 1106.33L1477.33 1106.67L1476.67 1106.33M1479.67 1107.33L1480.33 1107.67L1479.67 1107.33M1482.67 1108.33L1483.33 1108.67L1482.67 1108.33M1441 1109L1441 1112L1442 1112L1441 1109z"/>
<path style="fill:#010101; stroke:none;" d="M1489 1109L1489 1110L1496 1111L1489 1109z"/>
<path style="fill:#62080a; stroke:none;" d="M1883.33 1109.67L1883.67 1110.33L1883.33 1109.67z"/>
<path style="fill:#9e060a; stroke:none;" d="M1497.67 1112.33L1498.33 1112.67L1497.67 1112.33M1440 1113L1440 1116L1441 1116L1440 1113M1502.67 1113.33L1503.33 1113.67L1502.67 1113.33z"/>
<path style="fill:#010101; stroke:none;" d="M1505 1113L1506 1114L1505 1113M1960 1113L1961 1124L1962 1124L1960 1113z"/>
<path style="fill:#9e060a; stroke:none;" d="M1504 1114L1505 1115L1504 1114z"/>
<path style="fill:#010101; stroke:none;" d="M1506.33 1114.67L1506.67 1115.33L1506.33 1114.67M1882 1115L1881 1120L1882 1120L1882 1115z"/>
<path style="fill:#9e060a; stroke:none;" d="M1439 1116L1439 1119L1440 1119L1439 1116M1583 1116L1579 1121L1583 1116M1438.33 1120.67L1438.67 1121.33L1438.33 1120.67z"/>
<path style="fill:#62080a; stroke:none;" d="M1507 1120L1508 1121L1507 1120z"/>
<path style="fill:#010101; stroke:none;" d="M1910 1120L1909 1124L1910 1124L1910 1120M1509 1121L1510 1125L1511 1125L1509 1121z"/>
<path style="fill:#62080a; stroke:none;" d="M1879 1121L1880 1122L1879 1121z"/>
<path style="fill:#9e060a; stroke:none;" d="M1577 1122L1576 1124L1577 1122M1437 1125L1437 1128L1438 1128L1437 1125z"/>
<path style="fill:#62080a; stroke:none;" d="M1878 1125L1879 1126L1878 1125M1907 1125L1908 1126L1907 1125M1963 1126L1963 1129L1964 1129L1963 1126M1877.33 1127.67L1877.67 1128.33L1877.33 1127.67z"/>
<path style="fill:#9e060a; stroke:none;" d="M1436 1129L1436 1132L1437 1132L1436 1129z"/>
<path style="fill:#62080a; stroke:none;" d="M1511 1129L1512 1130L1511 1129z"/>
<path style="fill:#9e060a; stroke:none;" d="M1573.67 1129.33L1574.33 1129.67L1573.67 1129.33z"/>
<path style="fill:#62080a; stroke:none;" d="M1876.33 1129.67L1876.67 1130.33L1876.33 1129.67z"/>
<path style="fill:#9e060a; stroke:none;" d="M1578.67 1130.33L1579.33 1130.67L1578.67 1130.33z"/>
<path style="fill:#62080a; stroke:none;" d="M1898 1130L1899 1131L1898 1130z"/>
<path style="fill:#010101; stroke:none;" d="M1906.33 1130.67L1906.67 1131.33L1906.33 1130.67z"/>
<path style="fill:#62080a; stroke:none;" d="M1512 1131L1513 1132L1512 1131z"/>
<path style="fill:#9e060a; stroke:none;" d="M1581.67 1131.33L1582.33 1131.67L1581.67 1131.33z"/>
<path style="fill:#010101; stroke:none;" d="M1896 1131L1872 1155C1879.24 1150.21 1893.91 1139.61 1896 1131z"/>
<path style="fill:#9e060a; stroke:none;" d="M1435 1132L1435 1135L1436 1135L1435 1132z"/>
<path style="fill:#010101; stroke:none;" d="M1514.33 1132.67L1514.67 1133.33L1514.33 1132.67z"/>
<path style="fill:#9e060a; stroke:none;" d="M1585 1132L1586 1133L1585 1132z"/>
<path style="fill:#62080a; stroke:none;" d="M1782 1132L1782 1148L1783 1148L1782 1132M1875.33 1132.67L1875.67 1133.33L1875.33 1132.67M1904 1132L1905 1133L1904 1132M1903 1134L1904 1135L1903 1134z"/>
<path style="fill:#9e060a; stroke:none;" d="M1434.33 1136.67L1434.67 1137.33L1434.33 1136.67z"/>
<path style="fill:#62080a; stroke:none;" d="M1515 1138L1516 1139L1515 1138z"/>
<path style="fill:#010101; stroke:none;" d="M1874 1138L1873 1143L1874 1143L1874 1138M1902 1138L1901 1142L1902 1142L1902 1138z"/>
<path style="fill:#f20308; stroke:none;" d="M1517 1139L1518 1140L1517 1139z"/>
<path style="fill:#010101; stroke:none;" d="M1964 1139L1965 1150L1966 1150L1964 1139z"/>
<path style="fill:#62080a; stroke:none;" d="M1516 1140L1518 1143L1516 1140z"/>
<path style="fill:#010101; stroke:none;" d="M1517.33 1140.67L1517.67 1141.33L1517.33 1140.67z"/>
<path style="fill:#9e060a; stroke:none;" d="M1433 1141L1433 1144L1434 1144L1433 1141M1518 1141L1519 1142L1518 1141M1342 1142L1343 1143L1342 1142z"/>
<path style="fill:#62080a; stroke:none;" d="M1871.33 1143.67L1871.67 1144.33L1871.33 1143.67M1899 1143L1900 1144L1899 1143z"/>
<path style="fill:#010101; stroke:none;" d="M1431 1144L1430 1151L1431 1151L1431 1144z"/>
<path style="fill:#62080a; stroke:none;" d="M1518 1144L1519 1145L1518 1144z"/>
<path style="fill:#9e060a; stroke:none;" d="M1342 1145L1343 1146L1342 1145z"/>
<path style="fill:#010101; stroke:none;" d="M1898 1146L1889 1164L1890 1164L1898 1146z"/>
<path style="fill:#62080a; stroke:none;" d="M1519 1147L1520 1148L1519 1147z"/>
<path style="fill:#010101; stroke:none;" d="M1521 1149L1522 1153L1523 1153L1521 1149z"/>
<path style="fill:#62080a; stroke:none;" d="M1783 1149L1783 1169L1784 1169L1783 1149z"/>
<path style="fill:#010101; stroke:none;" d="M1870 1149L1869 1154L1870 1154L1870 1149z"/>
<path style="fill:#62080a; stroke:none;" d="M1967 1151L1967 1155L1968 1155L1967 1151M1523.33 1156.67L1523.67 1157.33L1523.33 1156.67M1871 1156L1872 1157L1871 1156z"/>
<path style="fill:#9e060a; stroke:none;" d="M1429 1157L1429 1160L1430 1160L1429 1157z"/>
<path style="fill:#010101; stroke:none;" d="M1525 1158L1526 1162L1527 1162L1525 1158M1427 1160L1426 1167L1427 1167L1427 1160z"/>
<path style="fill:#62080a; stroke:none;" d="M1968 1160L1968 1165L1969 1165L1968 1160M1887 1164L1888 1165L1887 1164M1527 1166L1528 1167L1527 1166z"/>
<path style="fill:#010101; stroke:none;" d="M1529 1167L1530 1171L1531 1171L1529 1167M1886 1167L1884 1172L1885 1172L1886 1167z"/>
<path style="fill:#62080a; stroke:none;" d="M1967 1167L1968 1168L1967 1167z"/>
<path style="fill:#010101; stroke:none;" d="M1965 1168L1964 1171L1965 1171L1965 1168z"/>
<path style="fill:#62080a; stroke:none;" d="M1784 1169L1784 1189L1785 1189L1784 1169M1882 1172L1883 1173L1882 1172z"/>
<path style="fill:#9e060a; stroke:none;" d="M1425 1173L1425 1176L1426 1176L1425 1173z"/>
<path style="fill:#62080a; stroke:none;" d="M1963 1173L1964 1174L1963 1173M1531 1175L1532 1176L1531 1175z"/>
<path style="fill:#010101; stroke:none;" d="M1881 1175L1882 1176L1881 1175z"/>
<path style="fill:#62080a; stroke:none;" d="M1962 1175L1963 1176L1962 1175z"/>
<path style="fill:#010101; stroke:none;" d="M1423 1176L1422 1183L1423 1183L1423 1176M1960 1176L1955 1186L1956 1186L1960 1176z"/>
<path style="fill:#62080a; stroke:none;" d="M1532 1177L1533 1178L1532 1177z"/>
<path style="fill:#010101; stroke:none;" d="M1909 1177L1900 1183L1900 1184L1903 1182L1904 1182L1905 1184L1906 1184L1909 1177M1534.33 1178.67L1534.67 1179.33L1534.33 1178.67M1879 1178L1877 1182L1879 1178z"/>
<path style="fill:#62080a; stroke:none;" d="M1906 1180L1905 1183L1906 1180M1535 1184L1536 1185L1535 1184z"/>
<path style="fill:#010101; stroke:none;" d="M1875 1184L1873 1188L1874 1188L1875 1184M1895 1187L1898 1185L1895 1187z"/>
<path style="fill:#62080a; stroke:none;" d="M1536 1186L1537 1187L1536 1186z"/>
<path style="fill:#010101; stroke:none;" d="M1903 1186L1902 1188L1903 1186z"/>
<path style="fill:#f20308; stroke:none;" d="M1538 1187L1539 1188L1538 1187z"/>
<path style="fill:#010101; stroke:none;" d="M1538.33 1188.67L1538.67 1189.33L1538.33 1188.67z"/>
<path style="fill:#62080a; stroke:none;" d="M1871 1188L1872 1189L1871 1188M1894 1188L1895 1189L1894 1188M1900 1188L1901 1189L1900 1188z"/>
<path style="fill:#010101; stroke:none;" d="M1953 1188L1952 1191L1953 1188z"/>
<path style="fill:#9e060a; stroke:none;" d="M1421 1189L1421 1192L1422 1192L1421 1189z"/>
<path style="fill:#62080a; stroke:none;" d="M1892 1189L1893 1190L1892 1189z"/>
<path style="fill:#010101; stroke:none;" d="M1889 1190L1887 1191L1887 1192L1889 1190M1870 1191L1862 1203C1865.42 1200.22 1870.23 1195.63 1870 1191M1899 1191L1886 1207C1890.68 1203.69 1898.63 1197.04 1899 1191M1419 1192L1418 1199L1419 1199L1419 1192z"/>
<path style="fill:#62080a; stroke:none;" d="M1785 1193L1785 1207L1786 1207L1785 1193z"/>
<path style="fill:#010101; stroke:none;" d="M1884 1193L1882 1194L1882 1195L1884 1193z"/>
<path style="fill:#62080a; stroke:none;" d="M1951 1193L1952 1194L1951 1193z"/>
<path style="fill:#9e060a; stroke:none;" d="M1541 1194L1542 1195L1541 1194z"/>
<path style="fill:#010101; stroke:none;" d="M1541.33 1195.67L1541.67 1196.33L1541.33 1195.67z"/>
<path style="fill:#62080a; stroke:none;" d="M1950 1195L1951 1196L1950 1195M1881 1196L1882 1197L1881 1196z"/>
<path style="fill:#010101; stroke:none;" d="M1948 1196L1943 1206L1944 1206L1948 1196M1542.33 1197.67L1542.67 1198.33L1542.33 1197.67z"/>
<path style="fill:#62080a; stroke:none;" d="M1879 1197L1880 1198L1879 1197z"/>
<path style="fill:#010101; stroke:none;" d="M1876 1198L1874 1199L1874 1200L1876 1198z"/>
<path style="fill:#62080a; stroke:none;" d="M1543 1201L1544 1202L1543 1201z"/>
<path style="fill:#010101; stroke:none;" d="M1871 1201L1868 1203L1868 1204L1872 1202L1871 1201z"/>
<path style="fill:#62080a; stroke:none;" d="M1860 1203L1861 1204L1860 1203z"/>
<path style="fill:#010101; stroke:none;" d="M1545 1204L1547 1210L1548 1210L1545 1204z"/>
<path style="fill:#62080a; stroke:none;" d="M1859 1204L1860 1205L1859 1204z"/>
<path style="fill:#9e060a; stroke:none;" d="M1417.33 1205.67L1417.67 1206.33L1417.33 1205.67z"/>
<path style="fill:#010101; stroke:none;" d="M1863 1207L1866 1206L1863 1207z"/>
<path style="fill:#62080a; stroke:none;" d="M1884 1207L1885 1208L1884 1207z"/>
<path style="fill:#010101; stroke:none;" d="M1415 1208L1414 1215L1415 1215L1415 1208z"/>
<path style="fill:#62080a; stroke:none;" d="M1862 1208L1863 1209L1862 1208M1883 1208L1884 1209L1883 1208z"/>
<path style="fill:#010101; stroke:none;" d="M1941 1208L1940 1211L1941 1208M1882 1211L1873 1221L1882 1211M1549 1213L1551 1219L1552 1219L1549 1213z"/>
<path style="fill:#62080a; stroke:none;" d="M1939 1213L1940 1214L1939 1213M1938 1215L1939 1216L1938 1215z"/>
<path style="fill:#010101; stroke:none;" d="M1936 1216L1935 1219L1936 1216z"/>
<path style="fill:#9e060a; stroke:none;" d="M1413.33 1221.67L1413.67 1222.33L1413.33 1221.67z"/>
<path style="fill:#010101; stroke:none;" d="M1553 1222L1555 1228L1556 1228L1553 1222z"/>
<path style="fill:#62080a; stroke:none;" d="M1869 1222L1870 1223L1869 1222M1934 1222L1935 1223L1934 1222M1933 1223L1934 1224L1933 1223z"/>
<path style="fill:#010101; stroke:none;" d="M1411 1224L1410 1231L1411 1231L1411 1224M1868 1224L1842 1247C1849.41 1243.22 1865.99 1232.3 1868 1224M1931.33 1224.67L1931.67 1225.33L1931.33 1224.67z"/>
<path style="fill:#62080a; stroke:none;" d="M1786 1226L1786 1243L1787 1243L1786 1226z"/>
<path style="fill:#010101; stroke:none;" d="M1929 1228L1927 1233L1928 1233L1929 1228z"/>
<path style="fill:#62080a; stroke:none;" d="M1556 1232L1557 1233L1556 1232M1557 1234L1558 1235L1557 1234M1926 1235L1927 1236L1926 1235M1558 1236L1559 1237L1558 1236z"/>
<path style="fill:#010101; stroke:none;" d="M1924 1236L1923 1239L1924 1236z"/>
<path style="fill:#9e060a; stroke:none;" d="M1409.33 1237.67L1409.67 1238.33L1409.33 1237.67z"/>
<path style="fill:#62080a; stroke:none;" d="M1559 1238L1560 1239L1559 1238z"/>
<path style="fill:#010101; stroke:none;" d="M1407 1240L1407 1243L1408 1243L1407 1240z"/>
<path style="fill:#62080a; stroke:none;" d="M1560.33 1241.67L1560.67 1242.33L1560.33 1241.67M1922 1242L1923 1243L1922 1242z"/>
<path style="fill:#010101; stroke:none;" d="M1562.33 1243.67L1562.67 1244.33L1562.33 1243.67z"/>
<path style="fill:#62080a; stroke:none;" d="M1921.33 1243.67L1921.67 1244.33L1921.33 1243.67M1787 1244L1787 1263L1788 1263L1787 1244M1920 1245L1921 1246L1920 1245z"/>
<path style="fill:#9e060a; stroke:none;" d="M1406.33 1247.67L1406.67 1248.33L1406.33 1247.67z"/>
<path style="fill:#62080a; stroke:none;" d="M1563 1247L1564 1248L1563 1247z"/>
<path style="fill:#010101; stroke:none;" d="M1839 1248L1838 1250L1839 1248z"/>
<path style="fill:#62080a; stroke:none;" d="M1918.33 1248.67L1918.67 1249.33L1918.33 1248.67z"/>
<path style="fill:#010101; stroke:none;" d="M1565 1250L1567 1256L1568 1256L1565 1250z"/>
<path style="fill:#62080a; stroke:none;" d="M1917 1250L1918 1251L1917 1250z"/>
<path style="fill:#010101; stroke:none;" d="M1835 1251L1831 1254L1831 1255L1835 1251M1915.33 1251.67L1915.67 1252.33L1915.33 1251.67z"/>
<path style="fill:#9e060a; stroke:none;" d="M1405.33 1253.67L1405.67 1254.33L1405.33 1253.67z"/>
<path style="fill:#62080a; stroke:none;" d="M1914 1255L1915 1256L1914 1255z"/>
<path style="fill:#9e060a; stroke:none;" d="M1404 1256L1404 1259L1405 1259L1404 1256z"/>
<path style="fill:#010101; stroke:none;" d="M1828 1256L1825 1258L1825 1259L1828 1256z"/>
<path style="fill:#62080a; stroke:none;" d="M1913.33 1256.67L1913.67 1257.33L1913.33 1256.67M1320 1258L1320 1259L1324 1259L1320 1258M1454 1258L1454 1259L1458 1259L1454 1258M1567 1258L1568 1259L1567 1258M1912 1258L1913 1259L1912 1258z"/>
<path style="fill:#010101; stroke:none;" d="M1402 1259L1402 1262L1403 1262L1402 1259z"/>
<path style="fill:#62080a; stroke:none;" d="M1822 1259L1823 1260L1822 1259z"/>
<path style="fill:#010101; stroke:none;" d="M1314 1260L1314 1261L1318 1261L1314 1260z"/>
<path style="fill:#9e060a; stroke:none;" d="M1318 1260L1319 1261L1318 1260z"/>
<path style="fill:#010101; stroke:none;" d="M1448 1260L1448 1261L1452 1261L1448 1260z"/>
<path style="fill:#9e060a; stroke:none;" d="M1452 1260L1453 1261L1452 1260z"/>
<path style="fill:#010101; stroke:none;" d="M1311 1261L1311 1262L1314 1262L1311 1261M1445 1261L1445 1262L1448 1262L1445 1261M1821 1261L1819 1262L1819 1263L1821 1261z"/>
<path style="fill:#62080a; stroke:none;" d="M1306 1262L1307 1263L1306 1262M1440 1262L1441 1263L1440 1262M1910 1262L1911 1263L1910 1262M1304 1263L1305 1264L1304 1263M1438 1263L1439 1264L1438 1263M1816 1263L1817 1264L1816 1263M1788 1264L1790 1280L1788 1264M1909 1264L1910 1265L1909 1264z"/>
<path style="fill:#010101; stroke:none;" d="M1302.67 1265.33L1303.33 1265.67L1302.67 1265.33M1436.67 1265.33L1437.33 1265.67L1436.67 1265.33M1813 1267L1816 1266L1813 1267z"/>
<path style="fill:#62080a; stroke:none;" d="M1908 1265L1909 1266L1908 1265M1299 1266L1300 1267L1299 1266M1433 1266L1434 1267L1433 1266z"/>
<path style="fill:#9e060a; stroke:none;" d="M1464 1266L1465 1267L1464 1266z"/>
<path style="fill:#62080a; stroke:none;" d="M1907 1266L1908 1267L1907 1266M1297 1267L1298 1268L1297 1267M1431 1267L1432 1268L1431 1267z"/>
<path style="fill:#9e060a; stroke:none;" d="M1401 1268L1401 1271L1402 1271L1401 1268z"/>
<path style="fill:#010101; stroke:none;" d="M1808 1270L1811 1268L1808 1270M1902 1268L1903 1269L1902 1268M1296 1269L1297 1270L1296 1269M1430 1269L1431 1270L1430 1269z"/>
<path style="fill:#62080a; stroke:none;" d="M1906 1269L1907 1270L1906 1269M1293 1270L1294 1271L1293 1270M1427 1270L1428 1271L1427 1270z"/>
<path style="fill:#9e060a; stroke:none;" d="M1457 1270L1458 1271L1457 1270z"/>
<path style="fill:#62080a; stroke:none;" d="M1805 1270L1806 1271L1805 1270z"/>
<path style="fill:#010101; stroke:none;" d="M1900 1270L1895 1279L1896 1279L1899 1275L1900 1270z"/>
<path style="fill:#62080a; stroke:none;" d="M1803 1271L1804 1272L1803 1271z"/>
<path style="fill:#010101; stroke:none;" d="M1292 1272L1283 1283L1292 1272z"/>
<path style="fill:#9e060a; stroke:none;" d="M1400 1272L1400 1275L1401 1275L1400 1272z"/>
<path style="fill:#010101; stroke:none;" d="M1426 1272L1420 1279L1426 1272z"/>
<path style="fill:#62080a; stroke:none;" d="M1904 1272L1905 1273L1904 1272z"/>
<path style="fill:#9e060a; stroke:none;" d="M1453 1273L1451 1276L1453 1273z"/>
<path style="fill:#010101; stroke:none;" d="M1800 1275L1803 1274L1800 1275M1398 1275L1398 1278L1399 1278L1398 1275z"/>
<path style="fill:#62080a; stroke:none;" d="M1796 1275L1797 1276L1796 1275M1902 1275L1903 1276L1902 1275z"/>
<path style="fill:#010101; stroke:none;" d="M1897 1276L1898 1277L1897 1276M1794.67 1277.33L1795.33 1277.67L1794.67 1277.33z"/>
<path style="fill:#62080a; stroke:none;" d="M1901 1277L1902 1278L1901 1277z"/>
<path style="fill:#9e060a; stroke:none;" d="M1448 1278L1446 1281L1448 1278z"/>
<path style="fill:#62080a; stroke:none;" d="M1791 1278L1792 1279L1791 1278M1900 1278L1901 1279L1900 1278M1418 1279L1419 1280L1418 1279z"/>
<path style="fill:#010101; stroke:none;" d="M1893 1280L1891 1283L1893 1280M1417 1282L1418 1283L1417 1282z"/>
<path style="fill:#62080a; stroke:none;" d="M1281 1283L1282 1284L1281 1283M1415 1283L1416 1284L1415 1283M1897.33 1283.67L1897.67 1284.33L1897.33 1283.67z"/>
<path style="fill:#9e060a; stroke:none;" d="M1397.33 1284.67L1397.67 1285.33L1397.33 1284.67z"/>
<path style="fill:#010101; stroke:none;" d="M1890 1284L1891 1285L1890 1284z"/>
<path style="fill:#62080a; stroke:none;" d="M1894.67 1284.33L1895.33 1284.67L1894.67 1284.33M1280 1285L1281 1286L1280 1285M1414 1285L1415 1286L1414 1285z"/>
<path style="fill:#9e060a; stroke:none;" d="M1442 1286L1443 1287L1442 1286z"/>
<path style="fill:#62080a; stroke:none;" d="M1892 1286L1893 1287L1892 1286M1895 1286L1896 1287L1895 1286z"/>
<path style="fill:#010101; stroke:none;" d="M1279.33 1288.67L1279.67 1289.33L1279.33 1288.67z"/>
<path style="fill:#9e060a; stroke:none;" d="M1396 1288L1396 1291L1397 1291L1396 1288z"/>
<path style="fill:#010101; stroke:none;" d="M1413 1288L1412 1292L1413 1292L1413 1288M1888 1288L1888 1291L1889 1291L1888 1288z"/>
<path style="fill:#62080a; stroke:none;" d="M1891 1288L1892 1289L1891 1288M1277 1290L1278 1291L1277 1290z"/>
<path style="fill:#010101; stroke:none;" d="M1394 1291L1394 1294L1395 1294L1394 1291z"/>
<path style="fill:#62080a; stroke:none;" d="M1410.33 1292.67L1410.67 1293.33L1410.33 1292.67M1892 1292L1891 1294L1892 1292z"/>
<path style="fill:#010101; stroke:none;" d="M1885 1293L1884 1295L1885 1293z"/>
<path style="fill:#9e060a; stroke:none;" d="M1438 1294L1439 1295L1438 1294z"/>
<path style="fill:#62080a; stroke:none;" d="M1887 1294L1888 1295L1887 1294z"/>
<path style="fill:#010101; stroke:none;" d="M1276 1295L1275 1300L1276 1300L1276 1295z"/>
<path style="fill:#62080a; stroke:none;" d="M1890 1295L1891 1296L1890 1295M1886 1296L1884 1297L1884 1298L1886 1296z"/>
<path style="fill:#9e060a; stroke:none;" d="M1276 1297L1277 1298L1276 1297z"/>
<path style="fill:#010101; stroke:none;" d="M1409 1298L1409 1301L1410 1301L1409 1298z"/>
<path style="fill:#62080a; stroke:none;" d="M1273 1300L1273 1304L1274 1304L1273 1300z"/>
<path style="fill:#9e060a; stroke:none;" d="M1275 1300L1276 1301L1275 1300M1393.33 1300.67L1393.67 1301.33L1393.33 1300.67z"/>
<path style="fill:#62080a; stroke:none;" d="M1880 1300L1879 1305L1880 1305L1882 1301L1880 1300M1882 1300L1883 1301L1882 1300z"/>
<path style="fill:#010101; stroke:none;" d="M1408 1301L1408 1305L1409 1305L1408 1301M1880 1301L1879 1303L1880 1301M1391 1303L1390 1310L1391 1310L1391 1303z"/>
<path style="fill:#62080a; stroke:none;" d="M1877 1303L1878 1304L1877 1303z"/>
<path style="fill:#9e060a; stroke:none;" d="M1408 1305L1409 1306L1408 1305M1435 1305L1436 1306L1435 1305z"/>
<path style="fill:#010101; stroke:none;" d="M1876 1305L1871 1309L1876 1305z"/>
<path style="fill:#62080a; stroke:none;" d="M1390 1306L1391 1307L1390 1306M1406 1306L1406 1314L1407 1314L1406 1306z"/>
<path style="fill:#010101; stroke:none;" d="M1863 1311L1863 1312L1867 1311L1863 1311z"/>
<path style="fill:#62080a; stroke:none;" d="M1272 1312L1273 1313L1272 1312M1867 1314L1870 1312L1867 1314M1871.33 1312.67L1871.67 1313.33L1871.33 1312.67M1274 1315L1274 1316L1304 1316L1274 1315z"/>
<path style="fill:#9e060a; stroke:none;" d="M1304 1315L1304 1316L1388 1316L1362 1315L1304 1315z"/>
<path style="fill:#62080a; stroke:none;" d="M1408 1315L1408 1316L1866 1316C1855.5 1311.59 1837.42 1315 1826 1315L1732 1315L1408 1315M1867 1315L1867 1316L1870 1316L1867 1315M1871 1315L1872 1316L1871 1315z"/>
</svg>
