<svg version="1.1" id="final_svg" xmlns:x="&amp;ns_extend;" xmlns:i="&amp;ns_ai;" xmlns:graph="&amp;ns_graphs;" xmlns="http://www.w3.org/2000/svg" xmlns:xlink="http://www.w3.org/1999/xlink" x="0px" y="0px" viewBox="331.5459289550781 69.26395416259766 449.0299987792969 408.88641357421875" style="enable-background:new 0 0 245.5370026 315;" xml:space="preserve">
      <style type="text/css">.st0{fill:url(#SVGID_1_);}	.st1{opacity:0.4;enable-background:new    ;}</style>
    <metadata>
              <sfw>
                      <slices></slices>
            <slicesourcebounds bottomleftorigin="true" height="315" width="245.5379944" x="0" y="0.0000146"></slicesourcebounds>
                  </sfw>
          </metadata>
    <g id="color_index_g" transform="translate(448.10433977847947, 69.26398399999982) scale(0.887)" opacity="1">
              <linearGradient id="SVGID_1_" gradientUnits="userSpaceOnUse" x1="271.632843" y1="911.0524902" x2="-259.7868347" y2="423.0976868" gradientTransform="matrix(1 0 0 1 0 -526)">
                      <stop offset="0.0579268" style="stop-color:#0e0d0e"></stop>
            <stop offset="0.5395328" style="stop-color:#fe0207"></stop>
                  </linearGradient>
        <path class="st0" d="M235.2339935,198.1489716l-22.3339996,63.2090302c0,0,11.0059967-8.4340363,16.0910034-18.8340302		c0,0-1.1549988,12.9420013-19.3950043,36.5080414l17.8249969-11.0390015		c-15.0690002,23.2940063-42.7099915,36.6860046-42.7099915,36.6860046l-3.2689972-76.9940338l-70.0130005-72.2190094		c-4.0749969-4.3760071-10.3560028-10.9850006-19.7910004-15.5740051		c-5.8730011-2.8529968-18.6389999-5.2980042-18.6389999-5.2980042s12.2699966-1.5679932,23.3969955,2.0820007l-1.8069992-3.9949951		L88.875,125.5939713L77.7480011,87.1539764l29.3850021-4.3759995L95.8899994,72.2969666		c-4.8280029-4.5090027-11.7470016-6.0059967-18.0110016-3.9069977c3.1269989-4.473999,2.4810028-10.5690002-1.5149994-14.2989998		L54.3240013,33.5299683c-1.2929993-1.2050018-3.1800003-1.5060005-4.7840004-0.762001l-8.6380005-14.8299999l-0.0060005-0.0039997		h0.0040016L35.7070007-0.0000292l-8.7470016,7.8719997l11.1800003,8.0699997l0.0009995,0.0019999l-0.9690018-0.6999998		c0,0-8.9039993-4.3500004-11.9239998-5.7410002l-1.5499992,1.4790001l-2.9860001,15.671998h2.8169994l-3.4820004,2.0909996		l-2.0200005-2.0909996l-6.2010002-1.5149994L9.5500002,31.677969l10.8790007,27.4099979l-3.0300007,14.8479996		c-0.7350006,3.6050034,2.0459995,6.8740005,5.5900002,6.8740005c0.2749996,0,0.5669994-0.0179977,0.8500004-0.0619965		l-9.302,12.677002c-1.4169998,1.9309998-2.4540005,4.1190033-3.0469999,6.4410019l-0.7180004,2.7730026l16.3810005-4.9260025		c0,0-9.8430004,5.776001-17.4080009,12.4560013c-5.2360001,4.6240005-7.849,11.5429993-6.9899998,18.4710083l1.302,10.470993		L0,158.9479675l34.8779984,64.4049988l0.2659988,73.690033l0.026001,0.0270081l-5.2980003-0.0270081		c-9.9130001,0-17.9570007,8.0440063-17.9570007,17.9570007h38.2450027l13.1650009-52.2330017l5.4129982-21.4570313		l8.0090027-31.7770081c-0.1240005,0.8059998-1.9400024,12.7660065-2.2770004,25.4609985		c-0.1240005,4.5709991,2.8959961,8.6289978,7.3089981,9.8070068l8.4329987,2.2590027l21.784996,49.9830322H75.1340027		c-9.9219971,0-17.9580002,8.0440063-17.9580002,17.9570007h127.9869919l30.2359924-0.0969849l30.1390076-50.3729858		L235.2339935,198.1489716z"></path>
          </g>
    <g transform="translate(448.10433977847947, 69.26398399999982) scale(0.887)" opacity="1">
              <path class="st1" d="M83.5940018,297.0429993c-9.913002,0-17.9570007,8.0440063-17.9570007,17.9570007h-8.4609985		c0-9.9129944,8.0439987-17.9570007,17.9580002-17.9570007H83.5940018z M90.2109985,247.059967l21.7850037,49.9830322h9.913002		v-41.48703L90.2109985,247.059967z M0,158.9479675l34.8779984,64.4049988l0.2659988,73.690033l0.026001,0.0270081		l-5.2980003-0.0270081c-9.9130001,0-17.9570007,8.0440063-17.9570007,17.9570007h9.7539997		c0-9.9129944,8.0440006-17.9570007,17.9570026-17.9570007h0.2120018l7.8400002-108.5770264L0,158.9479675z M67.4970016,87.4209671		l13.2770004,10.1839981L77.75,87.1579666L67.4970016,87.4209671z M27.2420006,25.6449699L23.698,10.9829721l-2.9860001,15.671998		h2.8169994l-3.4820004,2.0909996l10.4449997,11.914999l2.7909985,0.2299995L27.2420006,25.6449699z M42.6160011,36.9439697		l8.2229996,9.9339981c0,0,1.5760002-7.1350021-4.2529984-9.3450012		C45.0309982,36.9439697,42.6160011,36.9439697,42.6160011,36.9439697z M40.9000015,17.9339695l-5.1930008-17.934		L26.960001,7.8719707L40.9000015,17.9339695z"></path>
          </g>
    <g fill="#000000" id="text_group" transform="translate(329.55592397845453, 384.82098399999984)" opacity="1.0">
              <path d="M16.79 55.05L1.99 14.31L11.32 14.31L20.19 38.59L21.60 34.80L29.09 14.31L37.18 14.31L46.10 38.59L47.51 34.80L54.99 14.31L64.27 14.31L49.44 55.05L42.70 55.05L33.09 28.86L29.47 38.81L23.53 55.05L16.79 55.05ZM68.73 46.68L68.73 46.68L68.73 22.70Q68.73 19.20 71.16 16.75Q73.59 14.31 77.10 14.31L77.10 14.31L101.07 14.31Q104.53 14.31 106.98 16.78Q109.44 19.25 109.44 22.70L109.44 22.70L109.44 46.68Q109.44 50.13 106.98 52.59Q104.53 55.05 101.07 55.05L101.07 55.05L77.10 55.05Q73.59 55.05 71.16 52.62Q68.73 50.19 68.73 46.68ZM77.49 23.15L77.49 46.24L100.58 46.24L100.58 23.15L77.49 23.15ZM157.95 55.05L117.24 55.05L117.24 14.25L126.00 14.25L126.00 46.24L157.95 46.24L157.95 55.05ZM171.74 55.05L162.88 55.05L162.88 14.31L200.50 14.31L200.50 23.15L171.74 23.15L171.74 30.27L194.89 30.27L194.89 39.08L171.74 39.08L171.74 55.05ZM242.90 55.05L205.29 55.05L205.29 14.31L242.90 14.31L242.90 23.15L214.15 23.15L214.15 30.27L237.30 30.27L237.30 39.08L214.15 39.08L214.15 46.24L242.90 46.24L242.90 55.05ZM278.50 55.05L269.74 55.05L269.74 14.36L302.03 14.36Q305.48 14.36 307.97 16.84Q310.45 19.31 310.45 22.76L310.45 22.76L310.45 33.28Q310.45 36.74 307.97 39.19Q305.48 41.65 302.03 41.65L302.03 41.65L278.50 41.71Q278.66 41.71 278.66 42.04L278.66 42.04Q278.55 42.04 278.50 41.98L278.50 41.98L278.50 55.05ZM278.50 23.15L278.50 32.81L301.59 32.81L301.59 23.15L278.50 23.15ZM315.88 46.68L315.88 46.68L315.88 14.31L324.63 14.31L324.63 46.24L347.72 46.24L347.72 14.31L356.59 14.31L356.59 46.68Q356.59 50.13 354.13 52.59Q351.67 55.05 348.22 55.05L348.22 55.05L324.25 55.05Q320.74 55.05 318.31 52.62Q315.88 50.19 315.88 46.68ZM373.09 55.05L364.33 55.05L364.33 14.36L396.62 14.36Q400.07 14.36 402.56 16.84Q405.05 19.31 405.05 22.76L405.05 22.76L405.05 33.28Q405.05 36.74 402.56 39.19Q400.07 41.65 396.62 41.65L396.62 41.65L373.09 41.71Q373.25 41.71 373.25 42.04L373.25 42.04Q373.14 42.04 373.09 41.98L373.09 41.98L373.09 55.05ZM373.09 23.15L373.09 32.81L396.18 32.81L396.18 23.15L373.09 23.15ZM410.27 46.68L410.27 46.68L410.27 42.90L419.06 42.90L419.06 46.24L442.12 46.24L442.12 39.08L418.67 39.08Q415.22 39.08 412.75 36.65Q410.27 34.22 410.27 30.71L410.27 30.71L410.27 22.70Q410.27 19.20 412.75 16.75Q415.22 14.31 418.67 14.31L418.67 14.31L442.65 14.31Q446.10 14.31 448.56 16.78Q451.02 19.25 451.02 22.70L451.02 22.70L451.02 26.49L442.12 26.49L442.12 23.15L419.06 23.15L419.06 30.27L442.65 30.27Q446.10 30.27 448.56 32.73Q451.02 35.19 451.02 38.64L451.02 38.64L451.02 46.68Q451.02 50.13 448.56 52.59Q446.10 55.05 442.65 55.05L442.65 55.05L418.67 55.05Q415.22 55.05 412.75 52.62Q410.27 50.19 410.27 46.68Z"></path>
          </g>
    <g fill="#797979" id="tagline_group" transform="translate(388.6109747778929, 453.09037600000005)" opacity="1.0">
              <path d="M2.41 24.81L5.72 24.81L5.72 12.66L15.61 24.81L18.35 24.81L18.35 6.87L15.04 6.87L15.04 19.02L5.15 6.87L2.41 6.87ZM28.42 6.87L28.42 24.81L31.75 24.81L31.75 17.94L40.42 17.94L40.42 15.12L31.75 15.12L31.75 9.66L41.52 9.66L41.52 6.87ZM47.69 9.69L53.64 9.69L53.64 24.81L56.97 24.81L56.97 9.69L62.92 9.69L62.92 6.87L47.69 6.87ZM86.19 24.81L86.19 13.07L92.08 22.76L93.57 22.76L99.46 12.92L99.49 24.81L102.64 24.81L102.61 6.87L99.87 6.87L92.88 18.76L85.75 6.87L83.01 6.87L83.01 24.81ZM113.63 24.81L115.40 20.66L124.37 20.66L126.17 24.81L129.65 24.81L121.55 6.87L118.27 6.87L110.20 24.81ZM119.89 10.20L123.27 18.04L116.53 18.04ZM137.19 6.87L137.19 24.81L140.52 24.81L140.52 19.58L144.57 19.58C144.80 19.58 145.03 19.58 145.26 19.55L148.92 24.81L152.51 24.81L148.39 18.91C150.82 17.97 152.20 15.97 152.20 13.25C152.20 9.28 149.28 6.87 144.57 6.87ZM140.52 16.84L140.52 9.69L144.41 9.69C147.34 9.69 148.85 10.99 148.85 13.25C148.85 15.50 147.34 16.84 144.41 16.84ZM164.51 24.81L164.51 20.22L167.35 17.30L173.68 24.81L177.58 24.81L169.58 14.89L177.12 6.87L173.37 6.87L164.51 16.07L164.51 6.87L161.17 6.87L161.17 24.81ZM185.11 24.81L198.57 24.81L198.57 22.01L188.44 22.01L188.44 17.07L197.10 17.07L197.10 14.33L188.44 14.33L188.44 9.66L198.21 9.66L198.21 6.87L185.11 6.87ZM205.23 9.69L211.17 9.69L211.17 24.81L214.51 24.81L214.51 9.69L220.45 9.69L220.45 6.87L205.23 6.87ZM231.55 24.81L231.55 19.63L235.60 19.63C240.31 19.63 243.24 17.20 243.24 13.25C243.24 9.28 240.31 6.87 235.60 6.87L228.22 6.87L228.22 24.81ZM231.55 9.69L235.44 9.69C238.37 9.69 239.88 10.99 239.88 13.25C239.88 15.50 238.37 16.81 235.44 16.81L231.55 16.81ZM252.08 24.81L264.79 24.81L264.79 21.99L255.41 21.99L255.41 6.87L252.08 6.87ZM273.58 24.81L275.35 20.66L284.32 20.66L286.11 24.81L289.60 24.81L281.50 6.87L278.22 6.87L270.14 24.81ZM279.83 10.20L283.22 18.04L276.47 18.04ZM305.43 25.06C308.38 25.06 310.89 24.01 312.56 22.07L310.41 20.02C309.10 21.45 307.48 22.14 305.61 22.14C301.90 22.14 299.21 19.53 299.21 15.84C299.21 12.15 301.90 9.53 305.61 9.53C307.48 9.53 309.10 10.23 310.41 11.64L312.56 9.61C310.89 7.66 308.38 6.61 305.46 6.61C299.95 6.61 295.85 10.48 295.85 15.84C295.85 21.19 299.95 25.06 305.43 25.06ZM321.02 24.81L334.47 24.81L334.47 22.01L324.35 22.01L324.35 17.07L333.01 17.07L333.01 14.33L324.35 14.33L324.35 9.66L334.11 9.66L334.11 6.87L321.02 6.87Z"></path>
          </g>
  </svg>